<svg width="24" height="23" viewBox="0 0 24 23" fill="none" xmlns="http://www.w3.org/2000/svg">
<path d="M6.57129 2.60132C7.31343 2.60132 7.83383 2.60175 8.24121 2.62866C8.64242 2.6552 8.87994 2.70479 9.06152 2.77808C9.59048 2.9917 9.99636 3.37619 10.2139 3.83765C10.2842 3.98695 10.3364 4.18735 10.3643 4.54858C10.3928 4.9184 10.3926 5.39321 10.3926 6.08276C10.3926 6.77228 10.3928 7.24713 10.3643 7.61694C10.3364 7.97808 10.2842 8.17858 10.2139 8.32788C9.99636 8.78935 9.5905 9.17382 9.06152 9.38745C8.87993 9.46076 8.6425 9.51033 8.24121 9.53687C7.83383 9.56378 7.31344 9.56421 6.57129 9.56421C5.82904 9.56421 5.30877 9.5638 4.90137 9.53687C4.49996 9.51032 4.26267 9.4608 4.08105 9.38745C3.55212 9.17381 3.14621 8.78933 2.92871 8.32788C2.85841 8.17859 2.80716 7.97799 2.7793 7.61694C2.75076 7.24712 2.75 6.77231 2.75 6.08276C2.75 5.39321 2.75075 4.9184 2.7793 4.54858C2.80718 4.18745 2.85836 3.98694 2.92871 3.83765C3.14622 3.37618 3.55208 2.99171 4.08105 2.77808C4.26267 2.70473 4.49998 2.65521 4.90137 2.62866C5.30876 2.60173 5.82905 2.60132 6.57129 2.60132Z" stroke="white" stroke-width="1.5"/>
<path d="M6.57129 12.6513C7.31343 12.6513 7.83383 12.6518 8.24121 12.6787C8.64242 12.7052 8.87994 12.7548 9.06152 12.8281C9.59048 13.0417 9.99636 13.4262 10.2139 13.8877C10.2842 14.037 10.3364 14.2374 10.3643 14.5986C10.3928 14.9684 10.3926 15.4432 10.3926 16.1328C10.3926 16.8223 10.3928 17.2971 10.3643 17.667C10.3364 18.0281 10.2842 18.2286 10.2139 18.3779C9.99636 18.8394 9.5905 19.2238 9.06152 19.4375C8.87993 19.5108 8.6425 19.5603 8.24121 19.5869C7.83383 19.6138 7.31344 19.6142 6.57129 19.6142C5.82904 19.6142 5.30877 19.6138 4.90137 19.5869C4.49996 19.5603 4.26267 19.5108 4.08105 19.4375C3.55212 19.2238 3.14621 18.8393 2.92871 18.3779C2.85841 18.2286 2.80716 18.028 2.7793 17.667C2.75076 17.2971 2.75 16.8223 2.75 16.1328C2.75 15.4432 2.75075 14.9684 2.7793 14.5986C2.80718 14.2375 2.85836 14.037 2.92871 13.8877C3.14622 13.4262 3.55208 13.0417 4.08105 12.8281C4.26267 12.7548 4.49998 12.7052 4.90137 12.6787C5.30876 12.6517 5.82905 12.6513 6.57129 12.6513Z" stroke="white" stroke-width="1.5"/>
<path d="M17.4282 2.60132C18.1704 2.60132 18.6908 2.60175 19.0981 2.62866C19.4994 2.6552 19.7369 2.70479 19.9185 2.77808C20.4474 2.9917 20.8533 3.37619 21.0708 3.83765C21.1412 3.98695 21.1933 4.18735 21.2212 4.54858C21.2497 4.9184 21.2495 5.39321 21.2495 6.08276C21.2495 6.77228 21.2497 7.24713 21.2212 7.61694C21.1933 7.97808 21.1411 8.17858 21.0708 8.32788C20.8533 8.78935 20.4474 9.17382 19.9185 9.38745C19.7369 9.46076 19.4994 9.51033 19.0981 9.53687C18.6908 9.56378 18.1704 9.56421 17.4282 9.56421C16.686 9.56421 16.1657 9.5638 15.7583 9.53687C15.3569 9.51032 15.1196 9.4608 14.938 9.38745C14.4091 9.17381 14.0031 8.78933 13.7856 8.32788C13.7153 8.17859 13.6641 7.97799 13.6362 7.61694C13.6077 7.24712 13.6069 6.77231 13.6069 6.08276C13.6069 5.39321 13.6077 4.9184 13.6362 4.54858C13.6641 4.18745 13.7153 3.98694 13.7856 3.83765C14.0032 3.37618 14.409 2.99171 14.938 2.77808C15.1196 2.70473 15.3569 2.65521 15.7583 2.62866C16.1657 2.60173 16.686 2.60132 17.4282 2.60132Z" stroke="white" stroke-width="1.5"/>
<path d="M17.4282 12.6513C18.1704 12.6513 18.6908 12.6518 19.0981 12.6787C19.4994 12.7052 19.7369 12.7548 19.9185 12.8281C20.4474 13.0417 20.8533 13.4262 21.0708 13.8877C21.1412 14.037 21.1933 14.2374 21.2212 14.5986C21.2497 14.9684 21.2495 15.4432 21.2495 16.1328C21.2495 16.8223 21.2497 17.2971 21.2212 17.667C21.1933 18.0281 21.1411 18.2286 21.0708 18.3779C20.8533 18.8394 20.4474 19.2238 19.9185 19.4375C19.7369 19.5108 19.4994 19.5603 19.0981 19.5869C18.6908 19.6138 18.1704 19.6142 17.4282 19.6142C16.686 19.6142 16.1657 19.6138 15.7583 19.5869C15.3569 19.5603 15.1196 19.5108 14.938 19.4375C14.4091 19.2238 14.0031 18.8393 13.7856 18.3779C13.7153 18.2286 13.6641 18.028 13.6362 17.667C13.6077 17.2971 13.6069 16.8223 13.6069 16.1328C13.6069 15.4432 13.6077 14.9684 13.6362 14.5986C13.6641 14.2375 13.7153 14.037 13.7856 13.8877C14.0032 13.4262 14.409 13.0417 14.938 12.8281C15.1196 12.7548 15.3569 12.7052 15.7583 12.6787C16.1657 12.6517 16.686 12.6513 17.4282 12.6513Z" stroke="white" stroke-width="1.5"/>
</svg>
