<svg width="25" height="23" viewBox="0 0 25 23" fill="none" xmlns="http://www.w3.org/2000/svg">
<path d="M12.0975 21.2045C2.71351 21.2045 -0.250489 18.5037 1.45865 13.6194H22.7364C24.4455 18.5037 21.4815 21.2045 12.0975 21.2045Z" stroke="white" stroke-width="2" stroke-linejoin="round"/>
<path d="M7.32471 6.888C9.21899 9.14925 9.88928 11.428 10.1584 13.5766" stroke="white" stroke-width="2" stroke-linecap="round" stroke-linejoin="round"/>
<path d="M2.41884 13.6099C1.39027 11.5866 1.71599 9.25238 3.14399 8.09874C2.92011 7.80997 2.72502 7.50298 2.56113 7.18154C1.36456 4.82984 2.05541 2.19885 4.10399 1.30387C6.1577 0.408891 8.79084 1.5895 9.98741 3.94121C10.1543 4.27233 10.2857 4.60557 10.3817 4.94092C12.0823 4.68226 13.968 5.61692 15.0703 7.31008L15.3908 7.8861" stroke="white" stroke-width="2" stroke-linecap="round" stroke-linejoin="round"/>
<path d="M13.2067 13.4099H22.2101C22.3507 12.9402 22.4216 12.4176 22.4227 11.8421C22.4227 9.04928 20.7256 7.4783 17.7084 7.4783C14.6913 7.4783 12.9941 9.04928 12.9941 11.8421C12.9941 12.4176 13.065 12.9402 13.2067 13.4099Z" stroke="white" stroke-width="2" stroke-linecap="round" stroke-linejoin="round"/>
</svg>
