<svg width="24" height="23" viewBox="0 0 24 23" fill="none" xmlns="http://www.w3.org/2000/svg">
<path d="M17.0229 5.05818C17.1091 5.05818 17.1942 5.0934 17.2583 5.15877C17.3226 5.22446 17.3608 5.31557 17.3608 5.41267V7.3365H19.2563C19.3423 7.33661 19.4268 7.37182 19.4907 7.43709C19.555 7.50278 19.5933 7.59388 19.5933 7.69099C19.5932 7.78813 19.5551 7.87924 19.4907 7.9449C19.4268 8.01015 19.3423 8.04538 19.2563 8.04549H17.3608V9.96931C17.3608 10.0664 17.3226 10.1576 17.2583 10.2232C17.1942 10.2886 17.1091 10.3238 17.0229 10.3238C16.937 10.3237 16.8525 10.2884 16.7886 10.2232C16.7242 10.1576 16.6861 10.0664 16.686 9.96931V8.04549H14.7905C14.7045 8.04541 14.6201 8.01014 14.5562 7.9449C14.4918 7.87924 14.4537 7.78813 14.4536 7.69099C14.4536 7.59385 14.4918 7.50279 14.5562 7.43709C14.6201 7.3718 14.7045 7.33658 14.7905 7.3365H16.686V5.41267C16.686 5.31555 16.7243 5.22447 16.7886 5.15877C16.8525 5.09351 16.937 5.0583 17.0229 5.05818Z" stroke="white"/>
<path fill-rule="evenodd" clip-rule="evenodd" d="M24 8.05305C24 4.26431 22.3457 1.437 19.7693 0.408367C17.386 -0.545083 14.525 0.168011 12 2.57954C9.47498 0.168011 6.61395 -0.545083 4.2307 0.408367C1.65433 1.437 0 4.26432 0 8.05192C0 10.4657 1.2614 12.8397 2.832 14.8833C4.41935 16.9485 6.41526 18.7973 8.08074 20.1768L8.23032 20.3021C9.56986 21.4127 10.5388 22.2158 12 22.2158C13.4623 22.2158 14.429 21.4127 15.7697 20.3021L15.9193 20.1768C17.5847 18.7984 19.5807 16.9485 21.168 14.8833C22.7386 12.8397 24 10.4657 24 8.05305ZM12.6117 4.37253C14.9693 1.79924 17.4128 1.30144 19.1598 1.99859C20.9101 2.69801 22.3256 4.74389 22.3256 8.05305C22.3256 9.88819 21.3433 11.8851 19.8497 13.8284C18.3717 15.7536 16.483 17.5101 14.8644 18.8508C13.3094 20.1381 12.8071 20.506 12 20.506C11.1929 20.506 10.6906 20.1381 9.13563 18.8497C7.51702 17.5101 5.62828 15.7524 4.15033 13.8296C2.65563 11.8851 1.67442 9.88819 1.67442 8.05305C1.67442 4.74389 3.08986 2.69915 4.84019 1.99859C6.58716 1.30144 9.0307 1.79924 11.3883 4.37253C11.4666 4.45807 11.5613 4.52627 11.6665 4.5729C11.7718 4.61953 11.8853 4.64359 12 4.64359C12.1147 4.64359 12.2282 4.61953 12.3334 4.5729C12.4387 4.52627 12.5334 4.45807 12.6117 4.37253Z" fill="white"/>
</svg>
