<svg width="24" height="23" viewBox="0 0 24 23" fill="none" xmlns="http://www.w3.org/2000/svg">
<path d="M12.5396 6.83319H16.8301M12.5396 11.0321H20.5077M12.5396 15.2309H20.5077" stroke="white" stroke-width="1.2" stroke-linecap="round" stroke-linejoin="round"/>
<path fill-rule="evenodd" clip-rule="evenodd" d="M23.8919 14.2889C24 13.3794 24 12.2406 24 10.8033L24 7.83951C24.0002 6.73944 24.0004 6.03001 23.7769 5.35859C23.6544 4.9905 23.4828 4.63571 23.2655 4.30123C22.8691 3.69114 22.2831 3.1896 21.3746 2.4119L21.1834 2.24819C20.2752 1.47018 19.6895 0.968438 18.977 0.629003C18.5864 0.442913 18.1721 0.295955 17.7422 0.191031C16.9581 -0.000353732 16.1297 -0.000209205 14.845 1.5076e-05L13.2737 3.06889e-05V0.00230609C12.1271 0.0081934 11.162 0.0292917 10.3476 0.10485C9.18887 0.212347 8.22667 0.437588 7.39934 0.952304C6.90502 1.25985 6.4703 1.6321 6.11115 2.0554C5.72837 2.50655 5.48268 3.00453 5.32229 3.56298L4.31723 3.79359C1.21094 4.50632 -0.632475 7.24042 0.199854 9.90037L2.89671 18.5189C3.72903 21.1789 6.92192 22.7574 10.0282 22.0447L17.1328 20.4146C18.4896 20.1032 19.6055 19.4062 20.3627 18.4982C20.7351 18.387 21.0834 18.2428 21.4121 18.0546C22.0479 17.6909 22.5938 17.2234 23.0186 16.679C23.5496 15.9985 23.7813 15.2206 23.8919 14.2889ZM14.8597 1.57464L14.7098 1.57461C12.869 1.57463 11.5587 1.57628 10.5456 1.67027C9.54339 1.76325 8.94179 1.93897 8.48016 2.22616C8.14194 2.43659 7.8445 2.69129 7.59876 2.98091C7.26337 3.37621 7.05817 3.89136 6.94959 4.74958C6.83914 5.62253 6.83788 6.75329 6.83788 8.3453V10.7596C6.83788 12.2503 6.83899 13.3091 6.93645 14.1295C7.03236 14.9368 7.21388 15.4256 7.50931 15.8042C7.79998 16.1767 8.17349 16.4965 8.60851 16.7454C9.05065 16.9984 9.62146 17.1539 10.5642 17.236C11.5223 17.3194 12.7587 17.3204 14.4995 17.3204C16.2403 17.3204 17.4767 17.3194 18.4348 17.236C19.3776 17.1539 19.9484 16.9984 20.3905 16.7454C20.8256 16.4965 21.1991 16.1767 21.4897 15.8042C21.7852 15.4256 21.9667 14.9368 22.0626 14.1295C22.1601 13.3091 22.1612 12.2503 22.1612 10.7596V8.13535C22.1612 7.61825 22.1592 7.30963 22.1245 7.08843C22.1086 6.98707 22.0898 6.9363 22.0788 6.91344C22.0763 6.90814 22.0743 6.90466 22.0731 6.90263L22.0714 6.90008L22.0684 6.89863C22.066 6.89757 22.062 6.89588 22.0558 6.8937C22.0291 6.88429 21.9698 6.86824 21.8514 6.85461C21.5931 6.82487 21.2327 6.8232 20.6288 6.8232L19.3481 6.8232C18.8175 6.82326 18.3311 6.82331 17.9354 6.77775C17.4996 6.72758 17.039 6.60954 16.6602 6.28515C16.2814 5.96077 16.1435 5.56636 16.0849 5.19321C16.0317 4.85435 16.0318 4.43779 16.0318 3.98345L16.0319 2.67681C16.0319 2.26566 16.0306 2.02053 16.0079 1.84149C15.9946 1.73616 15.9777 1.69301 15.9714 1.6805C15.9535 1.65992 15.9322 1.6417 15.9082 1.62641C15.8936 1.62101 15.8432 1.6065 15.7202 1.59509C15.5284 1.57729 15.2716 1.57491 14.8597 1.57464ZM16.6921 18.8854C16.0495 18.895 15.3384 18.895 14.5505 18.895H14.4486C12.7701 18.895 11.4401 18.895 10.3781 18.8025C9.28997 18.7077 8.38156 18.5093 7.58693 18.0546C6.95113 17.6909 6.40524 17.2234 5.98041 16.679C5.44946 15.9985 5.21779 15.2206 5.1071 14.2889C4.99906 13.3794 4.99907 12.2406 4.99908 10.8033V8.29859C4.99907 7.10067 4.99906 6.09692 5.05727 5.25391L4.79315 5.31451C2.66779 5.80217 1.40651 7.67287 1.97599 9.49284L4.67285 18.1114C5.24233 19.9314 7.42694 21.0114 9.5523 20.5238L16.6569 18.8936C16.6686 18.8909 16.6804 18.8882 16.6921 18.8854ZM21.6586 5.06677C21.7014 5.13257 21.7415 5.19951 21.7791 5.2675C21.4515 5.24854 21.0799 5.24858 20.6837 5.24862L19.403 5.24862C18.7991 5.24862 18.4387 5.24695 18.1804 5.21721C18.062 5.20358 18.0027 5.18753 17.976 5.17812C17.9698 5.17595 17.9658 5.17425 17.9634 5.17319L17.9604 5.17174L17.9587 5.16919C17.9575 5.16716 17.9555 5.16368 17.953 5.15839C17.942 5.13552 17.9232 5.08476 17.9073 4.9834C17.8726 4.7622 17.8706 4.45358 17.8706 3.93648L17.8707 2.63977C17.8707 2.37542 17.8707 2.12694 17.8572 1.9053C17.9336 1.93643 18.0089 1.96967 18.083 2.00496C18.5434 2.2243 18.942 2.55569 19.9787 3.44345C21.0155 4.33121 21.4025 4.67253 21.6586 5.06677Z" fill="white"/>
</svg>
