<svg width="58" height="60" viewBox="0 0 58 60" fill="none" xmlns="http://www.w3.org/2000/svg">
<path d="M29 0.5C44.7276 0.5 57.5 13.5985 57.5 29.7842C57.4998 45.9696 44.7275 59.0674 29 59.0674C13.2725 59.0674 0.500209 45.9696 0.5 29.7842C0.5 13.5985 13.2724 0.5 29 0.5Z" fill="#1E6F78" stroke="#1E6F78"/>
<path d="M43.2941 39.2088H43.2346L43.175 39.2029C42.9731 39.1819 42.7752 39.1324 42.5872 39.0559L38.418 37.5783L38.3886 37.5658C38.2984 37.5268 38.2009 37.5076 38.1027 37.5092C38.0096 37.509 37.9173 37.5257 37.8301 37.5584C37.7309 37.5959 36.8183 37.939 35.8594 38.2021C35.3399 38.3447 33.5316 38.8098 32.0803 38.8098C28.3711 38.8098 24.9028 37.3843 22.3156 34.7956C21.0524 33.54 20.0507 32.0464 19.3684 30.4012C18.6861 28.7561 18.3366 26.9919 18.3404 25.2109C18.3413 24.2817 18.4415 23.3552 18.6394 22.4473C19.2846 19.4648 20.9952 16.7497 23.4553 14.8054C25.9791 12.8267 29.0945 11.7531 32.3015 11.7568C36.1379 11.7568 39.7127 13.2263 42.3682 15.8848C44.8783 18.403 46.2538 21.714 46.2428 25.2072C46.2428 27.8043 45.4668 30.3421 44.0142 32.4949L43.9738 32.5515C43.9466 32.5875 43.9209 32.625 43.8966 32.6654C43.8621 32.7257 43.8378 32.7749 43.8231 32.8124L44.979 36.9214C45.0208 37.0626 45.0474 37.208 45.0583 37.3549V37.4453C45.0583 37.6769 45.0127 37.9063 44.924 38.1203C44.8353 38.3343 44.7054 38.5288 44.5415 38.6925C44.3777 38.8563 44.1832 38.9862 43.9692 39.0748C43.7551 39.1633 43.5257 39.2089 43.2941 39.2088V39.2088ZM39.26 35.3842L42.4145 36.5018L41.507 33.2775C41.3601 32.744 41.4799 32.1378 41.8671 31.4743L41.8744 31.4625C41.9372 31.3572 42.0053 31.2551 42.0787 31.1569C43.2589 29.3957 43.8891 27.3236 43.8893 25.2035C43.8988 22.3378 42.7658 19.6191 40.7002 17.5455C38.4914 15.3286 35.5126 14.1081 32.3015 14.1081C26.8243 14.1081 22.0452 17.8254 20.9371 22.9462C20.7748 23.6905 20.6926 24.4499 20.6917 25.2116C20.6917 31.4141 25.8008 36.4606 32.0811 36.4606C33.0018 36.4606 34.3589 36.1785 35.2407 35.9367C36.1092 35.6987 36.9653 35.3746 37.0042 35.3614C37.7341 35.0853 38.541 35.0934 39.2652 35.3842H39.26Z" fill="white"/>
<path d="M16.2559 44.6757C15.8539 44.6752 15.4639 44.5387 15.1493 44.2884L15.1265 44.2701C14.885 44.0675 14.7022 43.8038 14.5971 43.5066C14.4921 43.2094 14.4686 42.8894 14.5292 42.58C14.7393 41.4881 15.1817 39.1831 15.3477 38.33V38.3256C14.123 36.501 13.4264 34.3734 13.335 32.1778C13.2436 29.9822 13.7609 27.804 14.8297 25.884C14.9813 25.6111 15.2351 25.4097 15.5352 25.324C15.8354 25.2383 16.1572 25.2753 16.4301 25.4269C16.7029 25.5785 16.9043 25.8323 16.9901 26.1325C17.0758 26.4326 17.0387 26.7545 16.8871 27.0273C16.0238 28.5681 15.6056 30.3186 15.6795 32.0832C15.7533 33.8479 16.3162 35.5573 17.3052 37.0206L17.3096 37.0272C17.5808 37.4364 17.8402 37.9324 17.7145 38.5122C17.6844 38.6592 17.3471 40.4036 17.0458 41.9775L20.1827 40.7496C20.7471 40.5259 21.3769 40.5332 21.9359 40.7702C23.2769 41.2905 24.6686 41.5653 25.9626 41.5653H25.9736C27.8275 41.5628 29.6479 41.0711 31.2509 40.1398C31.3847 40.0626 31.5324 40.0125 31.6856 39.9924C31.8387 39.9722 31.9943 39.9825 32.1435 40.0225C32.2927 40.0625 32.4325 40.1315 32.5551 40.2256C32.6776 40.3197 32.7804 40.4369 32.8576 40.5707C32.9348 40.7045 32.9849 40.8522 33.005 41.0053C33.0251 41.1585 33.0149 41.3141 32.9748 41.4633C32.9348 41.6125 32.8658 41.7523 32.7717 41.8749C32.6777 41.9974 32.5604 42.1002 32.4266 42.1774C30.4638 43.3148 28.2356 43.9142 25.967 43.9152H25.9531C24.3659 43.9152 22.6729 43.5823 21.0578 42.9533L21.0255 42.9401L16.918 44.5449C16.7099 44.6319 16.4866 44.6763 16.2611 44.6757H16.2559ZM16.8386 43.0209C16.8386 43.0209 16.8386 43.0209 16.8386 43.0268C16.8386 43.0327 16.8379 43.0224 16.8386 43.0209V43.0209ZM15.4117 38.0052C15.4117 38.0133 15.4117 38.0213 15.4065 38.0294C15.4087 38.0184 15.4102 38.0103 15.4117 38.0052Z" fill="white"/>
</svg>
