<svg width="25" height="25" viewBox="0 0 25 25" fill="none" xmlns="http://www.w3.org/2000/svg">
<path d="M17.6111 1V5.44317M7.38889 1V5.44317M1 9.88633H24M13.7778 3.22158H11.2222C6.40372 3.22158 3.99383 3.22158 2.49756 4.52343C1.00128 5.82528 1 7.91912 1 12.1079V14.3295C1 18.5183 1 20.6132 2.49756 21.914C3.99511 23.2147 6.40372 23.2158 11.2222 23.2158H13.7778C18.5963 23.2158 21.0062 23.2158 22.5024 21.914C23.9987 20.6121 24 18.5183 24 14.3295V12.1079C24 7.91912 24 5.82417 22.5024 4.52343C21.0049 3.22269 18.5963 3.22158 13.7778 3.22158Z" stroke="white" stroke-width="2" stroke-linecap="round" stroke-linejoin="round"/>
<path d="M8.66699 17.1065C8.66699 17.1065 10.5837 17.6619 11.2225 19.3281C11.2225 19.3281 14.0043 14.885 17.6114 13.7742" stroke="white" stroke-width="2" stroke-linecap="round" stroke-linejoin="round"/>
</svg>
