<svg width="24" height="24" viewBox="0 0 24 24" fill="none" xmlns="http://www.w3.org/2000/svg">
<path d="M5.23803 13.572L12.789 21.3275C13.0973 21.644 13.2452 22.0133 13.2329 22.4354C13.2205 22.8575 13.0598 23.2268 12.7505 23.5433C12.4423 23.8335 12.0827 23.9854 11.6718 23.9991C11.2609 24.0129 10.9013 23.8609 10.5931 23.5433L0.422335 13.0972C0.268232 12.9389 0.15882 12.7675 0.0940971 12.5828C0.0293741 12.3982 -0.00195987 12.2003 9.48328e-05 11.9893C0.00214953 11.7783 0.0345106 11.5804 0.0971789 11.3958C0.159847 11.2111 0.268747 11.0396 0.423876 10.8814L10.5946 0.435254C10.8772 0.145084 11.2306 0 11.6549 0C12.0792 0 12.4449 0.145084 12.7521 0.435254C13.0603 0.751803 13.2144 1.12797 13.2144 1.56375C13.2144 1.99953 13.0603 2.37517 12.7521 2.69067L5.23803 10.4065H22.459C22.8956 10.4065 23.2618 10.5585 23.5577 10.8624C23.8536 11.1663 24.001 11.5419 24 11.9893C23.999 12.4367 23.851 12.8128 23.5562 13.1178C23.2613 13.4227 22.8956 13.5741 22.459 13.572H5.23803Z" fill="black"/>
</svg>
