<svg width="38" height="42" viewBox="0 0 38 42" fill="none" xmlns="http://www.w3.org/2000/svg">
<rect width="37.23" height="41.33" rx="12" fill="#1E6F78"/>
<path fill-rule="evenodd" clip-rule="evenodd" d="M30.7071 16.2929C31.0976 16.6834 31.0976 17.3166 30.7071 17.7071L25.2071 23.2071C24.8166 23.5976 24.1834 23.5976 23.7929 23.2071C23.4024 22.8166 23.4024 22.1834 23.7929 21.7929L29.2929 16.2929C29.6834 15.9024 30.3166 15.9024 30.7071 16.2929Z" fill="white"/>
<path fill-rule="evenodd" clip-rule="evenodd" d="M16.7929 17.7929C17.1834 17.4024 17.8166 17.4024 18.2071 17.7929L22.2071 21.7929C22.5976 22.1834 22.5976 22.8166 22.2071 23.2071C21.8166 23.5976 21.1834 23.5976 20.7929 23.2071L16.7929 19.2071C16.4024 18.8166 16.4024 18.1834 16.7929 17.7929Z" fill="white"/>
<path fill-rule="evenodd" clip-rule="evenodd" d="M15.2071 17.7929C15.5976 18.1834 15.5976 18.8166 15.2071 19.2071L8.70711 25.7071C8.31658 26.0976 7.68342 26.0976 7.29289 25.7071C6.90237 25.3166 6.90237 24.6834 7.29289 24.2929L13.7929 17.7929C14.1834 17.4024 14.8166 17.4024 15.2071 17.7929Z" fill="white"/>
<path fill-rule="evenodd" clip-rule="evenodd" d="M31.5 15C31.2239 15 31 15.2239 31 15.5C31 15.7761 31.2239 16 31.5 16C31.7761 16 32 15.7761 32 15.5C32 15.2239 31.7761 15 31.5 15ZM29 15.5C29 14.1193 30.1193 13 31.5 13C32.8807 13 34 14.1193 34 15.5C34 16.8807 32.8807 18 31.5 18C30.1193 18 29 16.8807 29 15.5Z" fill="white"/>
<path fill-rule="evenodd" clip-rule="evenodd" d="M23 23.5C22.7239 23.5 22.5 23.7239 22.5 24C22.5 24.2761 22.7239 24.5 23 24.5C23.2761 24.5 23.5 24.2761 23.5 24C23.5 23.7239 23.2761 23.5 23 23.5ZM20.5 24C20.5 22.6193 21.6193 21.5 23 21.5C24.3807 21.5 25.5 22.6193 25.5 24C25.5 25.3807 24.3807 26.5 23 26.5C21.6193 26.5 20.5 25.3807 20.5 24Z" fill="white"/>
<path fill-rule="evenodd" clip-rule="evenodd" d="M16 16.5C15.7239 16.5 15.5 16.7239 15.5 17C15.5 17.2761 15.7239 17.5 16 17.5C16.2761 17.5 16.5 17.2761 16.5 17C16.5 16.7239 16.2761 16.5 16 16.5ZM13.5 17C13.5 15.6193 14.6193 14.5 16 14.5C17.3807 14.5 18.5 15.6193 18.5 17C18.5 18.3807 17.3807 19.5 16 19.5C14.6193 19.5 13.5 18.3807 13.5 17Z" fill="white"/>
<path fill-rule="evenodd" clip-rule="evenodd" d="M6.5 26C6.22386 26 6 26.2239 6 26.5C6 26.7761 6.22386 27 6.5 27C6.77614 27 7 26.7761 7 26.5C7 26.2239 6.77614 26 6.5 26ZM4 26.5C4 25.1193 5.11929 24 6.5 24C7.88071 24 9 25.1193 9 26.5C9 27.8807 7.88071 29 6.5 29C5.11929 29 4 27.8807 4 26.5Z" fill="white"/>
</svg>
