<svg width="29" height="32" viewBox="0 0 29 32" fill="none" xmlns="http://www.w3.org/2000/svg">
<rect width="28.3456" height="31.3308" rx="8" fill="#1E6F78"/>
<path fill-rule="evenodd" clip-rule="evenodd" d="M23.3793 12.3511C23.6766 12.6471 23.6766 13.1271 23.3793 13.4231L19.1918 17.5925C18.8945 17.8885 18.4124 17.8885 18.1151 17.5925C17.8178 17.2964 17.8178 16.8165 18.1151 16.5204L22.3026 12.3511C22.5999 12.055 23.082 12.055 23.3793 12.3511Z" fill="white"/>
<path fill-rule="evenodd" clip-rule="evenodd" d="M12.7855 13.4881C13.0828 13.1921 13.5649 13.1921 13.8622 13.4881L16.9077 16.5204C17.205 16.8164 17.205 17.2964 16.9077 17.5925C16.6103 17.8885 16.1283 17.8885 15.8309 17.5925L12.7855 14.5602C12.4882 14.2642 12.4882 13.7842 12.7855 13.4881Z" fill="white"/>
<path fill-rule="evenodd" clip-rule="evenodd" d="M11.5782 13.4881C11.8755 13.7842 11.8755 14.2642 11.5782 14.5602L6.62932 19.4876C6.33199 19.7837 5.84992 19.7837 5.55259 19.4876C5.25526 19.1916 5.25526 18.7116 5.55259 18.4156L10.5014 13.4881C10.7988 13.1921 11.2808 13.1921 11.5782 13.4881Z" fill="white"/>
<path fill-rule="evenodd" clip-rule="evenodd" d="M23.983 11.371C23.7728 11.371 23.6023 11.5407 23.6023 11.75C23.6023 11.9594 23.7728 12.1291 23.983 12.1291C24.1932 12.1291 24.3637 11.9594 24.3637 11.75C24.3637 11.5407 24.1932 11.371 23.983 11.371ZM22.0796 11.75C22.0796 10.7034 22.9318 9.85486 23.983 9.85486C25.0342 9.85486 25.8864 10.7034 25.8864 11.75C25.8864 12.7967 25.0342 13.6452 23.983 13.6452C22.9318 13.6452 22.0796 12.7967 22.0796 11.75Z" fill="white"/>
<path fill-rule="evenodd" clip-rule="evenodd" d="M17.5113 17.8145C17.3011 17.8145 17.1306 17.9842 17.1306 18.1935C17.1306 18.4028 17.3011 18.5725 17.5113 18.5725C17.7216 18.5725 17.892 18.4028 17.892 18.1935C17.892 17.9842 17.7216 17.8145 17.5113 17.8145ZM15.6079 18.1935C15.6079 17.1468 16.4601 16.2983 17.5113 16.2983C18.5625 16.2983 19.4147 17.1468 19.4147 18.1935C19.4147 19.2402 18.5625 20.0887 17.5113 20.0887C16.4601 20.0887 15.6079 19.2402 15.6079 18.1935Z" fill="white"/>
<path fill-rule="evenodd" clip-rule="evenodd" d="M12.1817 12.5081C11.9715 12.5081 11.801 12.6778 11.801 12.8871C11.801 13.0964 11.9715 13.2661 12.1817 13.2661C12.392 13.2661 12.5624 13.0964 12.5624 12.8871C12.5624 12.6778 12.392 12.5081 12.1817 12.5081ZM10.2783 12.8871C10.2783 11.8404 11.1305 10.9919 12.1817 10.9919C13.2329 10.9919 14.0851 11.8404 14.0851 12.8871C14.0851 13.9338 13.2329 14.7823 12.1817 14.7823C11.1305 14.7823 10.2783 13.9338 10.2783 12.8871Z" fill="white"/>
<path fill-rule="evenodd" clip-rule="evenodd" d="M4.94881 19.7097C4.73857 19.7097 4.56813 19.8794 4.56813 20.0888C4.56813 20.2981 4.73857 20.4678 4.94881 20.4678C5.15906 20.4678 5.3295 20.2981 5.3295 20.0888C5.3295 19.8794 5.15906 19.7097 4.94881 19.7097ZM3.04541 20.0888C3.04541 19.0421 3.89759 18.1936 4.94881 18.1936C6.00004 18.1936 6.85222 19.0421 6.85222 20.0888C6.85222 21.1354 6.00004 21.9839 4.94881 21.9839C3.89759 21.9839 3.04541 21.1354 3.04541 20.0888Z" fill="white"/>
</svg>
