<svg width="30" height="30" viewBox="0 0 30 30" fill="none" xmlns="http://www.w3.org/2000/svg">
<g clip-path="url(#clip0_2046_15035)">
<path d="M20.517 10.1089L21.1049 10.1114C21.1055 9.95549 21.0442 9.80574 20.9344 9.69504C20.8246 9.58433 20.6754 9.52172 20.5195 9.52096L20.517 10.1089ZM19.9196 12.325C19.9165 12.4039 19.9293 12.4827 19.9573 12.5566C19.9853 12.6305 20.0278 12.6979 20.0825 12.755C20.1371 12.8121 20.2027 12.8576 20.2752 12.8888C20.3478 12.92 20.426 12.9362 20.505 12.9365C20.584 12.9369 20.6622 12.9213 20.7351 12.8907C20.8079 12.8602 20.8739 12.8152 20.929 12.7586C20.9841 12.702 21.0272 12.6349 21.0558 12.5612C21.0844 12.4876 21.0979 12.409 21.0955 12.33L19.9196 12.325ZM18.3009 9.51151C18.222 9.50838 18.1432 9.52119 18.0693 9.54917C17.9954 9.57715 17.9279 9.61972 17.8709 9.67435C17.8138 9.72897 17.7683 9.79454 17.7371 9.86712C17.7059 9.93971 17.6897 10.0178 17.6894 10.0968C17.689 10.1758 17.7046 10.2541 17.7352 10.327C17.7657 10.3998 17.8107 10.4658 17.8673 10.5209C17.9239 10.576 17.991 10.6191 18.0646 10.6477C18.1383 10.6763 18.2169 10.6898 18.2959 10.6874L18.3009 9.51151ZM17.5891 13.8404L20.9312 10.5266L20.1028 9.69113L16.7607 13.0048L17.5891 13.8404ZM19.9291 10.1064L19.9196 12.325L21.0955 12.33L21.1049 10.1114L19.9291 10.1064ZM20.5195 9.52096L18.3009 9.51151L18.2959 10.6874L20.5145 10.6968L20.5195 9.52096Z" fill="#431607"/>
<path d="M25.6545 5.1609L24.4171 6.24209M25.0943 16.923L24.3746 16.2258M14.4334 6.19956L13.3328 5.1604M27.8949 11.3219L26.8113 11.2448M19.4355 3.80477L19.4939 2.36005M19.6791 15.9107C20.7199 15.8504 21.7112 15.4461 22.4974 14.7614C23.2837 14.0768 23.8203 13.1504 24.0231 12.1277C24.2259 11.1051 24.0835 10.044 23.618 9.11112C21.7338 5.72111 18.0027 6.66744 17.3926 6.95596C16.9219 7.17859 16.4807 7.48344 16.0903 7.87059C15.2752 8.67683 14.7837 9.75363 14.7085 10.8976" stroke="#E3B359" stroke-linecap="round"/>
<path d="M4.00528 19.2473C1.86735 18.8198 2.04551 20.8508 2.40183 21.9198H18.4367C20.1471 20.6366 18.7931 18.8912 17.9023 18.1788C17.9023 15.1857 15.408 15.1501 14.1609 15.5064C10.7402 12.0857 8.45973 15.1499 7.74709 17.1096C7.39077 16.2188 6.14364 14.651 4.00571 15.5062C1.86778 16.3613 3.11462 18.3566 4.00528 19.2473Z" fill="#E84B17"/>
<path d="M19.2875 22.5173H2.18408C2.61167 25.5104 5.92546 27.8622 7.52891 27.8622V30.0001H13.9427V27.8622C17.3634 27.4346 18.9312 24.1208 19.2875 22.5173Z" fill="#3A1F07"/>
</g>
<defs>
<clipPath id="clip0_2046_15035">
<rect width="30" height="30" fill="white"/>
</clipPath>
</defs>
</svg>
