<svg width="30" height="30" viewBox="0 0 30 30" fill="none" xmlns="http://www.w3.org/2000/svg">
<g clip-path="url(#clip0_2046_15046)">
<path d="M15.9869 8.92776C15.9869 8.92776 16.1026 8.33883 16.1637 8.15273C16.4464 7.29707 16.8949 6.50557 17.4837 5.82343C18.0726 5.14129 18.7901 4.58187 19.5954 4.17713C20.4007 3.77238 21.2779 3.53023 22.1771 3.4645C23.0762 3.39878 23.9796 3.51076 24.8357 3.79406C24.0611 4.48292 23.5031 5.39518 23.1549 6.45072C22.8724 7.30565 22.7828 8.21262 22.8925 9.10654C23.0022 10.0005 23.3085 10.8591 23.7894 11.6209C24.2703 12.3827 24.9139 13.0288 25.6739 13.5126C26.434 13.9965 27.2917 14.3062 28.1854 14.4196C28.1854 15.5 25.8298 16.1042 25.2256 16.1042" stroke="#E3B359" stroke-linecap="square"/>
<path d="M5.02668 17.9762C2.64753 17.4924 2.8458 19.7905 3.24232 21H21.0864C22.9897 19.5482 21.4829 17.5732 20.4916 16.7672C20.4916 13.3805 17.716 13.3402 16.3281 13.7434C12.5215 9.87295 9.98372 13.3401 9.19067 15.5574C8.79414 14.5495 7.40631 12.7755 5.02716 13.7431C2.64801 14.7108 4.03553 16.9684 5.02668 17.9762Z" fill="#155B94"/>
<path d="M22 22H3C3.475 25.2 7.15625 27.7143 8.9375 27.7143V30H16.0625V27.7143C19.8625 27.2571 21.6042 23.7143 22 22Z" fill="#3A1F07"/>
</g>
<defs>
<clipPath id="clip0_2046_15046">
<rect width="30" height="30" fill="white"/>
</clipPath>
</defs>
</svg>
