<svg width="28" height="30" viewBox="0 0 28 30" fill="none" xmlns="http://www.w3.org/2000/svg">
<path d="M0.5 13.3889C0.5 7.31339 0.5 4.27483 2.258 2.38822C4.016 0.501611 6.8435 0.5 12.5 0.5H15.5C21.1565 0.5 23.9855 0.5 25.742 2.38822C27.4985 4.27644 27.5 7.31339 27.5 13.3889V16.6111C27.5 22.6866 27.5 25.7252 25.742 27.6118C23.984 29.4984 21.1565 29.5 15.5 29.5H12.5C6.8435 29.5 4.0145 29.5 2.258 27.6118C0.5015 25.7236 0.5 22.6866 0.5 16.6111V13.3889Z" stroke="black"/>
<path fill-rule="evenodd" clip-rule="evenodd" d="M24.497 18.6917L23.981 18.1391L23.9585 18.1134C23.357 17.4689 22.8725 16.9485 22.4465 16.5635C22.0085 16.1671 21.5825 15.8642 21.083 15.7031C20.3767 15.4743 19.6233 15.4743 18.917 15.7031C18.4175 15.8642 17.9915 16.1671 17.552 16.5635C17.1275 16.9485 16.643 17.4689 16.0415 18.1134L16.019 18.1391C15.569 18.6225 15.269 18.9447 15.0245 19.1606C14.783 19.3749 14.678 19.4103 14.6345 19.4184C14.4536 19.4524 14.2673 19.414 14.111 19.3104C14.075 19.2846 13.9895 19.2105 13.8395 18.9157C13.6322 18.476 13.442 18.0272 13.2695 17.5704L13.19 17.3706L13.1705 17.3239C12.6245 15.9545 12.1895 14.8637 11.7665 14.0566C11.336 13.2349 10.8575 12.5824 10.169 12.2119C9.552 11.8798 8.86167 11.7371 8.174 11.7994C7.4045 11.8687 6.7355 12.2827 6.0515 12.874C5.3795 13.4556 4.598 14.2934 3.617 15.3487L3.584 15.3825L3.5 15.4744V17.7525L4.6445 16.5216C5.666 15.426 6.3905 14.6495 6.992 14.1291C7.592 13.6119 7.9745 13.4347 8.2985 13.4041C8.71165 13.3666 9.12642 13.4525 9.497 13.6522C9.788 13.8085 10.082 14.1259 10.4585 14.846C10.838 15.571 11.2415 16.578 11.81 18.0038L11.891 18.2052L11.906 18.2422C12.137 18.8222 12.332 19.312 12.521 19.6858C12.716 20.0709 12.956 20.4366 13.322 20.6799C13.7915 20.9921 14.3516 21.1079 14.8955 21.0053C15.3185 20.9247 15.6665 20.6799 15.98 20.4011C16.286 20.1305 16.637 19.7535 17.054 19.3056L17.0795 19.2782C17.7095 18.6015 18.149 18.1311 18.5195 17.796C18.8825 17.4657 19.1285 17.3175 19.3505 17.245C19.7735 17.108 20.2265 17.108 20.6495 17.245C20.8715 17.3175 21.1175 17.4657 21.4805 17.7944C21.851 18.1311 22.2905 18.6015 22.9205 19.2782L24.464 20.9344C24.4835 20.2739 24.4925 19.5327 24.497 18.6917Z" fill="black"/>
<path d="M20.751 10.1654C21.9936 10.1654 23.001 9.08339 23.001 7.7487C23.001 6.41401 21.9936 5.33203 20.751 5.33203C19.5083 5.33203 18.501 6.41401 18.501 7.7487C18.501 9.08339 19.5083 10.1654 20.751 10.1654Z" fill="black"/>
</svg>
