<svg width="19" height="14" viewBox="0 0 19 14" fill="none" xmlns="http://www.w3.org/2000/svg">
<path fill-rule="evenodd" clip-rule="evenodd" d="M0 1.01759C0 0.747706 0.0938334 0.488879 0.260858 0.298044C0.427883 0.10721 0.654417 0 0.890625 0H18.1094C18.3456 0 18.5721 0.10721 18.7391 0.298044C18.9062 0.488879 19 0.747706 19 1.01759C19 1.28747 18.9062 1.5463 18.7391 1.73713C18.5721 1.92797 18.3456 2.03517 18.1094 2.03517H0.890625C0.654417 2.03517 0.427883 1.92797 0.260858 1.73713C0.0938334 1.5463 0 1.28747 0 1.01759ZM0 6.78392C0 6.51403 0.0938334 6.25521 0.260858 6.06437C0.427883 5.87354 0.654417 5.76633 0.890625 5.76633H18.1094C18.3456 5.76633 18.5721 5.87354 18.7391 6.06437C18.9062 6.25521 19 6.51403 19 6.78392C19 7.0538 18.9062 7.31262 18.7391 7.50346C18.5721 7.69429 18.3456 7.8015 18.1094 7.8015H0.890625C0.654417 7.8015 0.427883 7.69429 0.260858 7.50346C0.0938334 7.31262 0 7.0538 0 6.78392ZM0.890625 11.5327C0.654417 11.5327 0.427883 11.6399 0.260858 11.8307C0.0938334 12.0215 0 12.2804 0 12.5502C0 12.8201 0.0938334 13.079 0.260858 13.2698C0.427883 13.4606 0.654417 13.5678 0.890625 13.5678H18.1094C18.3456 13.5678 18.5721 13.4606 18.7391 13.2698C18.9062 13.079 19 12.8201 19 12.5502C19 12.2804 18.9062 12.0215 18.7391 11.8307C18.5721 11.6399 18.3456 11.5327 18.1094 11.5327H0.890625Z" fill="white"/>
</svg>
