<svg width="24" height="24" viewBox="0 0 24 24" fill="none" xmlns="http://www.w3.org/2000/svg">
<path d="M17.0225 5.42383C17.0953 5.42383 17.1763 5.45555 17.2441 5.53027C17.3134 5.60667 17.3603 5.71966 17.3604 5.84668V7.88477H19.2559C19.3286 7.88488 19.4098 7.91655 19.4775 7.99121C19.5467 8.06755 19.5927 8.1808 19.5928 8.30762C19.5928 8.43465 19.5468 8.54858 19.4775 8.625C19.4098 8.69966 19.3286 8.73133 19.2559 8.73145H17.3604V10.7695C17.3603 10.8965 17.3134 11.0096 17.2441 11.0859C17.1763 11.1606 17.0952 11.1924 17.0225 11.1924C16.9497 11.1923 16.8685 11.1606 16.8008 11.0859C16.7316 11.0096 16.6856 10.8963 16.6855 10.7695V8.73145H14.79C14.7173 8.73136 14.6361 8.6997 14.5684 8.625C14.499 8.54858 14.4531 8.43468 14.4531 8.30762C14.4532 8.18078 14.4992 8.06755 14.5684 7.99121C14.6361 7.91651 14.7173 7.88485 14.79 7.88477H16.6855V5.84668C16.6856 5.71985 16.7316 5.60667 16.8008 5.53027C16.8685 5.45562 16.9497 5.42395 17.0225 5.42383Z" stroke="white"/>
<path fill-rule="evenodd" clip-rule="evenodd" d="M24 8.6998C24 4.60678 22.3457 1.55241 19.7693 0.441163C17.386 -0.588859 14.525 0.181504 12 2.78671C9.47498 0.181504 6.61395 -0.588859 4.2307 0.441163C1.65433 1.55241 0 4.60679 0 8.69857C0 11.3062 1.2614 13.8708 2.832 16.0786C4.41935 18.3097 6.41526 20.3069 8.08074 21.7972L8.23033 21.9326C9.56986 23.1324 10.5388 24 12 24C13.4623 24 14.429 23.1324 15.7697 21.9326L15.9193 21.7972C17.5847 20.3082 19.5807 18.3097 21.168 16.0786C22.7386 13.8708 24 11.3062 24 8.6998ZM12.6117 4.72369C14.9693 1.94374 17.4128 1.40596 19.1598 2.1591C20.9101 2.91469 22.3256 5.12487 22.3256 8.6998C22.3256 10.6823 21.3433 12.8396 19.8497 14.939C18.3717 17.0187 16.483 18.9163 14.8644 20.3648C13.3094 21.7554 12.8071 22.1529 12 22.1529C11.1929 22.1529 10.6906 21.7554 9.13563 20.3635C7.51702 18.9163 5.62828 17.0175 4.15033 14.9402C2.65563 12.8396 1.67442 10.6823 1.67442 8.6998C1.67442 5.12487 3.08986 2.91592 4.84019 2.1591C6.58716 1.40596 9.0307 1.94374 11.3883 4.72369C11.4666 4.8161 11.5613 4.88978 11.6665 4.94015C11.7718 4.99052 11.8853 5.01652 12 5.01652C12.1147 5.01652 12.2282 4.99052 12.3334 4.94015C12.4387 4.88978 12.5334 4.8161 12.6117 4.72369Z" fill="white"/>
</svg>
