<svg width="5" height="26" viewBox="0 0 5 26" fill="none" xmlns="http://www.w3.org/2000/svg">
<path d="M2.25 3.63C3.07843 3.63 3.75 2.98529 3.75 2.19C3.75 1.39471 3.07843 0.75 2.25 0.75C1.42157 0.75 0.75 1.39471 0.75 2.19C0.75 2.98529 1.42157 3.63 2.25 3.63Z" fill="white" stroke="white" stroke-width="1.5" stroke-linecap="round" stroke-linejoin="round"/>
<path d="M2.25 14.1901C3.07843 14.1901 3.75 13.5453 3.75 12.7501C3.75 11.9548 3.07843 11.3101 2.25 11.3101C1.42157 11.3101 0.75 11.9548 0.75 12.7501C0.75 13.5453 1.42157 14.1901 2.25 14.1901Z" fill="white" stroke="white" stroke-width="1.5" stroke-linecap="round" stroke-linejoin="round"/>
<path d="M2.25 24.7501C3.07843 24.7501 3.75 24.1054 3.75 23.3101C3.75 22.5148 3.07843 21.8701 2.25 21.8701C1.42157 21.8701 0.75 22.5148 0.75 23.3101C0.75 24.1054 1.42157 24.7501 2.25 24.7501Z" fill="white" stroke="white" stroke-width="1.5" stroke-linecap="round" stroke-linejoin="round"/>
</svg>
