<svg width="761" height="168" viewBox="0 0 761 168" fill="none" xmlns="http://www.w3.org/2000/svg">
<path d="M187.472 134V43.12H223.824C234.747 43.12 243.28 45.7653 249.424 51.056C255.653 56.3467 258.768 63.6 258.768 72.816C258.768 78.8747 257.36 84.1653 254.544 88.688C251.813 93.1253 247.803 96.5813 242.512 99.056C237.307 101.445 231.077 102.64 223.824 102.64H206.928V134H187.472ZM206.928 86.256H222.672C227.792 86.256 231.76 85.1467 234.576 82.928C237.392 80.624 238.8 77.2533 238.8 72.816C238.8 68.464 237.392 65.1787 234.576 62.96C231.845 60.656 227.877 59.504 222.672 59.504H206.928V86.256ZM299.671 135.536C292.674 135.536 286.572 134.085 281.367 131.184C276.247 128.197 272.236 124.016 269.335 118.64C266.519 113.264 265.111 106.949 265.111 99.696C265.111 92.4427 266.519 86.1707 269.335 80.88C272.236 75.504 276.247 71.3227 281.367 68.336C286.487 65.3493 292.546 63.856 299.543 63.856C306.37 63.856 312.3 65.3493 317.335 68.336C322.37 71.3227 326.252 75.5893 328.983 81.136C331.799 86.6827 333.207 93.296 333.207 100.976V104.816H284.951C285.207 110.277 286.658 114.331 289.303 116.976C292.034 119.621 295.618 120.944 300.055 120.944C303.298 120.944 305.986 120.261 308.119 118.896C310.338 117.531 311.916 115.44 312.855 112.624L332.183 113.776C330.391 120.603 326.594 125.936 320.791 129.776C314.988 133.616 307.948 135.536 299.671 135.536ZM284.951 93.04H313.495C313.239 88.0053 311.831 84.2507 309.271 81.776C306.796 79.3013 303.554 78.064 299.543 78.064C295.532 78.064 292.204 79.3867 289.559 82.032C286.999 84.592 285.463 88.2613 284.951 93.04ZM371.364 134C364.281 134 359.076 132.379 355.748 129.136C352.42 125.808 350.756 120.56 350.756 113.392V49.264H369.956V111.088C369.956 114.416 370.639 116.677 372.004 117.872C373.455 119.067 375.588 119.664 378.404 119.664H388.004V134H371.364ZM339.748 79.728V65.392H388.004V79.728H339.748ZM439.5 136.048C431.223 136.048 423.841 134.171 417.356 130.416C410.956 126.661 405.921 121.243 402.252 114.16C398.668 107.077 396.876 98.5867 396.876 88.688C396.876 79.0453 398.625 70.6827 402.124 63.6C405.623 56.432 410.615 50.8853 417.1 46.96C423.585 43.0347 431.18 41.072 439.884 41.072C451.745 41.072 460.961 44.016 467.532 49.904C474.188 55.7067 478.455 64.0267 480.332 74.864L460.108 75.632C459.084 69.9147 456.865 65.4773 453.452 62.32C450.039 59.0773 445.516 57.456 439.884 57.456C435.02 57.456 430.881 58.736 427.468 61.296C424.055 63.856 421.452 67.4827 419.66 72.176C417.868 76.8693 416.972 82.3733 416.972 88.688C416.972 95.088 417.868 100.635 419.66 105.328C421.537 109.936 424.183 113.477 427.596 115.952C431.009 118.427 435.063 119.664 439.756 119.664C445.9 119.664 450.636 117.957 453.964 114.544C457.377 111.045 459.511 106.224 460.364 100.08L480.716 100.848C479.521 108.272 477.175 114.587 473.676 119.792C470.177 124.997 465.569 129.008 459.852 131.824C454.22 134.64 447.436 136.048 439.5 136.048ZM513.175 135.536C506.092 135.536 500.29 133.915 495.767 130.672C491.33 127.344 489.111 122.736 489.111 116.848C489.111 110.789 490.988 106.139 494.743 102.896C498.583 99.568 504.215 97.136 511.639 95.6L533.783 91.248C533.783 86.8107 532.759 83.4827 530.711 81.264C528.748 78.96 525.89 77.808 522.135 77.808C518.466 77.808 515.607 78.6613 513.559 80.368C511.511 81.9893 510.188 84.4213 509.591 87.664L490.263 86.768C491.543 79.2587 494.914 73.584 500.375 69.744C505.922 65.8187 513.175 63.856 522.135 63.856C532.375 63.856 540.055 66.288 545.175 71.152C550.38 76.016 552.983 83.1413 552.983 92.528V115.952C552.983 117.915 553.282 119.237 553.879 119.92C554.562 120.517 555.543 120.816 556.823 120.816H558.743V134C558.146 134.171 557.164 134.341 555.799 134.512C554.519 134.683 553.239 134.768 551.959 134.768C549.228 134.768 546.668 134.299 544.279 133.36C541.975 132.421 540.098 130.843 538.647 128.624C537.196 126.32 536.471 123.077 536.471 118.896L538.135 120.176C537.282 123.248 535.746 125.936 533.527 128.24C531.394 130.544 528.578 132.336 525.079 133.616C521.666 134.896 517.698 135.536 513.175 135.536ZM517.783 122.352C520.94 122.352 523.714 121.755 526.103 120.56C528.492 119.28 530.37 117.445 531.735 115.056C533.1 112.667 533.783 109.851 533.783 106.608V103.28L518.167 106.608C515.095 107.205 512.748 108.229 511.127 109.68C509.591 111.045 508.823 112.837 508.823 115.056C508.823 117.36 509.591 119.152 511.127 120.432C512.663 121.712 514.882 122.352 517.783 122.352ZM568.823 134V65.392H586.999L587.639 85.36L586.231 84.976C587.34 78.064 589.303 73.072 592.119 70C594.935 66.928 598.818 65.392 603.767 65.392H610.039V81.264H603.767C600.183 81.264 597.239 81.7333 594.935 82.672C592.631 83.6107 590.882 85.104 589.687 87.152C588.578 89.2 588.023 91.9733 588.023 95.472V134H568.823ZM648.921 135.536C641.924 135.536 635.822 134.085 630.617 131.184C625.497 128.197 621.486 124.016 618.585 118.64C615.769 113.264 614.361 106.949 614.361 99.696C614.361 92.4427 615.769 86.1707 618.585 80.88C621.486 75.504 625.497 71.3227 630.617 68.336C635.737 65.3493 641.796 63.856 648.793 63.856C655.62 63.856 661.55 65.3493 666.585 68.336C671.62 71.3227 675.502 75.5893 678.233 81.136C681.049 86.6827 682.457 93.296 682.457 100.976V104.816H634.201C634.457 110.277 635.908 114.331 638.553 116.976C641.284 119.621 644.868 120.944 649.305 120.944C652.548 120.944 655.236 120.261 657.369 118.896C659.588 117.531 661.166 115.44 662.105 112.624L681.433 113.776C679.641 120.603 675.844 125.936 670.041 129.776C664.238 133.616 657.198 135.536 648.921 135.536ZM634.201 93.04H662.745C662.489 88.0053 661.081 84.2507 658.521 81.776C656.046 79.3013 652.804 78.064 648.793 78.064C644.782 78.064 641.454 79.3867 638.809 82.032C636.249 84.592 634.713 88.2613 634.201 93.04ZM703.944 89.1584V51.2192H714.389V89.1584H703.944ZM690.197 75.4112V64.9664H728.136V75.4112H690.197Z" fill="#1E6F78"/>
<path d="M0.0535268 114.212V70.2831C0.0535224 56.6314 7.20671 52.4413 12.2965 52.4413H35.4067C40.9092 52.4413 42.0097 46.4039 41.8721 43.3853V30.2743C40.5515 12.5406 54.115 9.9995 61.2682 9.99951H98.8224C116.155 9.99951 119.869 18.5149 119.869 23.3808V43.3853C119.869 50.7382 123.996 52.4864 126.059 52.4413H132.662C157.093 49.0892 160.908 61.4072 161 67.8501V100.425C161 122.727 156.873 128.314 151.783 128.945C139.265 130.972 130.874 120.564 119.869 82.4479C111.065 51.9547 86.1668 29.5984 74.199 23.3808V38.5193C73.4286 48.2512 68.6965 48.7919 66.2204 48.7919C55.8086 49.8732 50.8773 54.4688 49.7131 56.6314C43.3302 68.7422 35.424 73.5578 30.317 73.2567C23.4389 72.8512 19.5872 74.0677 17.9365 76.0952C17.9365 76.744 20.9628 84.5655 22.476 88.3952C24.677 95.8293 30.8672 98.3523 34.3062 98.6677C53.7849 97.1539 61.2682 102.588 61.2682 105.967C58.9572 125.106 44.715 129.26 37.8828 128.945H17.9365C2.39208 128.945 -0.450864 119.303 0.0535268 114.212Z" fill="#1E6F78"/>
<path d="M58.4253 78.7985C58.4253 80.096 54.1151 81.682 51.9599 82.3127C51.6298 94.5317 65.8536 99.0281 73.0068 99.749C81.1504 102.344 78.6009 108.67 76.3082 111.508C63.9828 117.888 53.3814 134.081 49.6214 141.38C40.5974 161.168 55.1238 166.836 63.5151 167.196H103.408C123.547 157.789 118.31 119.393 113.175 101.371C105.141 66.985 83.3239 54.7841 73.4195 52.9819C72.319 52.9819 72.9609 59.3797 73.4195 62.5787C59.2232 64.3088 57.5082 74.1127 58.4253 78.7985Z" fill="#1E6F78"/>
</svg>
