<svg width="586" height="582" viewBox="0 0 586 582" fill="none" xmlns="http://www.w3.org/2000/svg">
<path d="M0.194557 385.5V223C0.19454 172.5 26.1946 157 44.6945 157H128.695C148.695 157 152.695 134.667 152.195 123.5V75C147.395 9.39999 196.695 -3.99052e-05 222.695 0H359.195C422.195 0 435.695 31.5 435.695 49.5V123.5C435.695 150.7 450.695 157.167 458.195 157H482.195C570.995 144.6 584.861 190.167 585.195 214V334.5C585.195 417 570.195 437.667 551.695 440C506.195 447.5 475.695 409 435.695 268C403.695 155.2 313.195 72.5 269.695 49.5V105.5C266.895 141.5 249.695 143.5 240.695 143.5C202.85 147.5 184.926 164.5 180.695 172.5C157.495 217.3 128.757 235.114 110.195 234C85.1946 232.5 71.1946 237 65.1946 244.5C65.1946 246.9 76.1945 275.833 81.6945 290C89.6946 317.5 112.195 326.833 124.695 328C195.495 322.4 222.695 342.5 222.695 355C214.295 425.8 162.528 441.167 137.695 440H65.1946C8.6946 440 -1.63878 404.333 0.194557 385.5Z" fill="#1E6F78"/>
<path d="M212.369 254.5C212.369 259.3 196.703 265.167 188.869 267.5C187.669 312.7 239.369 329.333 265.369 332C294.969 341.6 285.703 365 277.369 375.5C232.569 399.1 194.036 459 180.369 486C147.569 559.2 200.369 580.167 230.869 581.5H375.869C449.069 546.7 430.036 404.667 411.369 338C382.169 210.8 302.869 165.667 266.869 159C262.869 159 265.203 182.667 266.869 194.5C215.269 200.9 209.036 237.167 212.369 254.5Z" fill="#1E6F78"/>
</svg>
