<svg width="30" height="30" viewBox="0 0 30 30" fill="none" xmlns="http://www.w3.org/2000/svg">
<g clip-path="url(#clip0_2046_15041)">
<path d="M17.2353 3.33345V1M10.6635 6.14992L9 4.50018M23.9741 19.3503L25.6376 21M26.6471 12.6673H29M23.9753 6.14992L25.6388 4.50018" stroke="#E3B359" stroke-linecap="round" stroke-linejoin="round"/>
<path d="M14 8.78342C16.882 5.96631 20.0041 7.05603 21.8054 8.19653C25.4078 12.3383 23.8067 15.6306 22.4058 17" stroke="#E3B359"/>
<path d="M2.02668 19.3122C-0.352467 18.8821 -0.154204 20.9249 0.242321 22H18.0864C19.9897 20.7095 18.4829 18.954 17.4916 18.2375C17.4916 15.2272 14.716 15.1913 13.3281 15.5497C9.52148 12.1093 6.98372 15.1912 6.19067 17.1621C5.79414 16.2662 4.40631 14.6894 2.02716 15.5495C-0.351993 16.4096 1.03553 18.4163 2.02668 19.3122Z" fill="#3DA05C"/>
<path d="M19 23H0C0.475 26.2 4.15625 28.7143 5.9375 28.7143V31H13.0625V28.7143C16.8625 28.2571 18.6042 24.7143 19 23Z" fill="#3A1F07"/>
</g>
<defs>
<clipPath id="clip0_2046_15041">
<rect width="30" height="30" fill="white"/>
</clipPath>
</defs>
</svg>
