<svg width="32" height="32" viewBox="0 0 32 32" fill="none" xmlns="http://www.w3.org/2000/svg">
<g clip-path="url(#clip0_2050_16395)">
<path d="M13.3335 20L20.7815 12.5534C20.4714 12.2433 20.2425 11.8616 20.1151 11.442C19.9878 11.0224 19.9658 10.5778 20.0513 10.1477C20.1368 9.71759 20.327 9.3152 20.6051 8.97616C20.8833 8.63712 21.2407 8.37191 21.6458 8.204C22.0509 8.0361 22.4912 7.97069 22.9276 8.01357C23.364 8.05645 23.7831 8.2063 24.1478 8.44983C24.5125 8.69337 24.8115 9.02308 25.0183 9.40977C25.2251 9.79645 25.3334 10.2282 25.3335 10.6667C25.7721 10.6664 26.2041 10.7743 26.591 10.9808C26.978 11.1873 27.308 11.4861 27.5519 11.8507C27.7958 12.2153 27.946 12.6344 27.9891 13.0709C28.0323 13.5075 27.9671 13.9479 27.7994 14.3532C27.6316 14.7585 27.3665 15.1161 27.0275 15.3944C26.6885 15.6728 26.286 15.8632 25.8558 15.9488C25.4256 16.0344 24.9809 16.0125 24.5612 15.8852C24.1415 15.7578 23.7596 15.5289 23.4495 15.2187L18.6668 20" stroke="#1E6F78" stroke-width="2" stroke-linecap="round" stroke-linejoin="round"/>
<path d="M15.9999 17.3334L11.2186 12.5534C11.5287 12.2433 11.7576 11.8616 11.885 11.442C12.0124 11.0224 12.0343 10.5778 11.9488 10.1477C11.8633 9.71759 11.6731 9.3152 11.395 8.97616C11.1169 8.63712 10.7594 8.37191 10.3543 8.204C9.94921 8.0361 9.50895 7.97069 9.07253 8.01357C8.63611 8.05645 8.217 8.2063 7.85232 8.44983C7.48764 8.69337 7.18865 9.02308 6.98183 9.40977C6.77501 9.79645 6.66674 10.2282 6.66662 10.6667C6.22798 10.6664 5.79604 10.7743 5.40908 10.9808C5.02211 11.1873 4.69207 11.4861 4.4482 11.8507C4.20433 12.2153 4.05415 12.6344 4.01099 13.0709C3.96783 13.5075 4.033 13.9479 4.20075 14.3532C4.36849 14.7585 4.63362 15.1161 4.97264 15.3944C5.31166 15.6728 5.7141 15.8632 6.1443 15.9488C6.5745 16.0344 7.01918 16.0125 7.43892 15.8852C7.85866 15.7578 8.2405 15.5289 8.55062 15.2187L13.3333 20" stroke="#1E6F78" stroke-width="2" stroke-linecap="round" stroke-linejoin="round"/>
<path d="M4 26.6667H28C27.7667 24.4387 27.9387 22.2067 25.3333 20H6.66667C4.88933 21.3333 4 23.556 4 26.6667Z" stroke="#1E6F78" stroke-width="2" stroke-linecap="round" stroke-linejoin="round"/>
</g>
<defs>
<clipPath id="clip0_2050_16395">
<rect width="32" height="32" fill="white"/>
</clipPath>
</defs>
</svg>
