<svg width="42" height="42" viewBox="0 0 42 42" fill="none" xmlns="http://www.w3.org/2000/svg">
<g clip-path="url(#clip0_2050_16384)">
<path d="M17.5 26.25L27.2755 16.4762C26.8685 16.0693 26.568 15.5683 26.4009 15.0175C26.2337 14.4668 26.2049 13.8833 26.3171 13.3188C26.4293 12.7543 26.679 12.2261 27.044 11.7811C27.4091 11.3362 27.8782 10.9881 28.4099 10.7677C28.9416 10.5473 29.5194 10.4615 30.0922 10.5178C30.665 10.574 31.2151 10.7707 31.6938 11.0903C32.1724 11.41 32.5648 11.8427 32.8363 12.3503C33.1077 12.8578 33.2498 13.4244 33.25 14C33.8257 13.9996 34.3926 14.1412 34.9005 14.4122C35.4084 14.6833 35.8416 15.0755 36.1617 15.554C36.4818 16.0326 36.6789 16.5826 36.7355 17.1556C36.7922 17.7285 36.7066 18.3065 36.4865 18.8385C36.2663 19.3704 35.9183 19.8398 35.4733 20.2051C35.0284 20.5704 34.5002 20.8203 33.9355 20.9327C33.3709 21.045 32.7873 21.0164 32.2364 20.8492C31.6854 20.6821 31.1843 20.3816 30.7772 19.9745L24.5 26.25" stroke="#1E6F78" stroke-width="2" stroke-linecap="round" stroke-linejoin="round"/>
<path d="M21.0001 22.75L14.7246 16.4762C15.1316 16.0693 15.432 15.5683 15.5992 15.0175C15.7663 14.4668 15.7951 13.8833 15.6829 13.3188C15.5707 12.7543 15.3211 12.2261 14.956 11.7811C14.591 11.3362 14.1219 10.9881 13.5902 10.7677C13.0585 10.5473 12.4806 10.4615 11.9078 10.5178C11.335 10.574 10.7849 10.7707 10.3063 11.0903C9.82765 11.41 9.43523 11.8427 9.16378 12.3503C8.89232 12.8578 8.75022 13.4244 8.75006 14C8.17435 13.9996 7.60743 14.1412 7.09954 14.4122C6.59165 14.6833 6.15847 15.0755 5.83838 15.554C5.5183 16.0326 5.3212 16.5826 5.26455 17.1556C5.20789 17.7285 5.29344 18.3065 5.5136 18.8385C5.73377 19.3704 6.08175 19.8398 6.52671 20.2051C6.97168 20.5704 7.49988 20.8203 8.06452 20.9327C8.62916 21.045 9.21279 21.0164 9.7637 20.8492C10.3146 20.6821 10.8158 20.3816 11.2228 19.9745L17.5001 26.25" stroke="#1E6F78" stroke-width="2" stroke-linecap="round" stroke-linejoin="round"/>
<path d="M5.25 35H36.75C36.4438 32.0757 36.6695 29.1462 33.25 26.25H8.75C6.41725 28 5.25 30.9173 5.25 35Z" stroke="#1E6F78" stroke-width="2" stroke-linecap="round" stroke-linejoin="round"/>
</g>
<defs>
<clipPath id="clip0_2050_16384">
<rect width="42" height="42" fill="white"/>
</clipPath>
</defs>
</svg>
