<svg width="25" height="24" viewBox="0 0 25 24" fill="none" xmlns="http://www.w3.org/2000/svg">
<path d="M12.0975 22.8293C2.71351 22.8293 -0.250489 19.9116 1.45865 14.635H22.7364C24.4455 19.9116 21.4815 22.8293 12.0975 22.8293Z" stroke="white" stroke-width="2" stroke-linejoin="round"/>
<path d="M7.3252 7.36304C9.21948 9.80589 9.88977 12.2676 10.1589 14.5888" stroke="white" stroke-width="2" stroke-linecap="round" stroke-linejoin="round"/>
<path d="M2.41884 14.6248C1.39027 12.4391 1.71599 9.91741 3.14399 8.67113C2.92011 8.35916 2.72502 8.02752 2.56113 7.68027C1.36456 5.1397 2.05541 2.29741 4.10399 1.33056C6.1577 0.363699 8.79084 1.63913 9.98741 4.1797C10.1543 4.53741 10.2857 4.89741 10.3817 5.2597C12.0823 4.98027 13.968 5.98998 15.0703 7.81913L15.3908 8.44141" stroke="white" stroke-width="2" stroke-linecap="round" stroke-linejoin="round"/>
<path d="M13.2067 14.4087H22.2101C22.3507 13.9013 22.4216 13.3367 22.4227 12.715C22.4227 9.69788 20.7256 8.00073 17.7084 8.00073C14.6913 8.00073 12.9941 9.69788 12.9941 12.715C12.9941 13.3367 13.065 13.9013 13.2067 14.4087Z" stroke="white" stroke-width="2" stroke-linecap="round" stroke-linejoin="round"/>
</svg>
