<svg width="22" height="26" viewBox="0 0 22 26" fill="none" xmlns="http://www.w3.org/2000/svg">
<path d="M1.375 22.1C0.985421 22.1 0.659088 21.9752 0.396005 21.7256C0.132922 21.476 0.000921408 21.1675 4.74137e-06 20.8C-0.000911925 20.4325 0.131088 20.124 0.396005 19.8744C0.660921 19.6248 0.987254 19.5 1.375 19.5H2.75V10.4C2.75 8.60167 3.32292 7.00397 4.46875 5.6069C5.61459 4.20984 7.10417 3.2942 8.9375 2.86V1.95C8.9375 1.40834 9.13825 0.948136 9.53975 0.569403C9.94125 0.19067 10.428 0.000869621 11 2.95455e-06C11.572 -0.000863712 12.0592 0.188936 12.4616 0.569403C12.864 0.949869 13.0643 1.41007 13.0625 1.95V2.86C14.8958 3.29334 16.3854 4.20897 17.5312 5.6069C18.6771 7.00484 19.25 8.60253 19.25 10.4V19.5H20.625C21.0146 19.5 21.3414 19.6248 21.6054 19.8744C21.8694 20.124 22.0009 20.4325 22 20.8C21.9991 21.1675 21.8671 21.4764 21.604 21.7269C21.3409 21.9774 21.0146 22.1017 20.625 22.1H1.375ZM11 26C10.2438 26 9.59658 25.7456 9.0585 25.2369C8.52042 24.7282 8.25092 24.1159 8.25 23.4H13.75C13.75 24.115 13.481 24.7273 12.9429 25.2369C12.4048 25.7465 11.7572 26.0009 11 26ZM5.5 19.5H16.5V10.4C16.5 8.97 15.9615 7.74584 14.8844 6.7275C13.8073 5.70917 12.5125 5.2 11 5.2C9.4875 5.2 8.19271 5.70917 7.11563 6.7275C6.03854 7.74584 5.5 8.97 5.5 10.4V19.5Z" fill="white"/>
</svg>
