<svg width="17" height="20" viewBox="0 0 17 20" fill="none" xmlns="http://www.w3.org/2000/svg">
<path d="M13.1409 1.52563H2.78216C2.20329 1.52563 1.71582 1.93163 1.71582 2.41376V12.31C1.71582 12.7921 2.20329 13.1981 2.78216 13.1981H13.1409C13.7197 13.1981 14.2072 12.7921 14.2072 12.31V2.41376C14.2072 1.93163 13.7197 1.52563 13.1409 1.52563ZM5.37183 9.39184H2.93449V8.6306H5.37183V9.39184ZM9.33252 9.39184H6.59051V8.6306H9.33252V9.39184ZM12.9885 9.39184H10.5512V8.6306H12.9885V9.39184Z" fill="black"/>
<path d="M14.523 0H1.68162C0.764371 0 0 0.556174 0 1.22358V12.0801C0 12.7252 0.336323 13.3259 0.917245 13.7931L2.47656 15.0389L2.50713 15.0612C3.57725 15.9066 3.69955 15.9956 3.97473 15.9956H6.42071V18.9321L6.84876 20H9.38647L9.81452 18.9321V16.0178H12.2605C12.5357 16.0178 12.658 15.9288 13.7281 15.0834L15.318 13.7931C15.8989 13.3259 16.2352 12.703 16.2352 12.0801V1.22358C16.2047 0.556174 15.4403 0 14.523 0ZM4.58622 15.3504V14.683H6.42071V15.3504H4.58622ZM8.56095 18.2425V16.9077H7.64371V18.2425H7.33796V14.683H8.8667V18.2425H8.56095ZM7.52141 19.3548L7.33796 18.9099H8.83612L8.65268 19.3548H7.52141ZM9.78394 14.683H11.6184V15.3504H9.78394V14.683ZM15.2874 12.0801C15.2874 12.5473 15.0428 12.9922 14.6148 13.3482L13.0554 14.594L13.0249 14.6162C12.872 14.7497 12.6886 14.8832 12.5357 14.9944V14.327C12.5357 14.1491 12.3217 13.9933 12.0771 13.9933H4.1276C3.883 13.9933 3.66898 14.1491 3.66898 14.327V14.9944C3.5161 14.861 3.33266 14.7275 3.17978 14.6162L1.58989 13.3482C1.16184 12.9922 0.917245 12.5473 0.917245 12.0801V1.22358C0.917245 0.912125 1.25357 0.667408 1.68162 0.667408H14.523C14.9511 0.667408 15.2874 0.912125 15.2874 1.22358V12.0801Z" fill="black"/>
<path d="M4.59296 14.0698C4.16464 14.4266 4.0296 14.8925 4.29136 15.1105C4.55311 15.3285 5.11253 15.216 5.54086 14.8593C5.96918 14.5026 6.10421 14.0366 5.84246 13.8186C5.5807 13.6006 5.02129 13.7131 4.59296 14.0698Z" fill="black"/>
<path d="M10.0773 14.0698C9.64901 14.4266 9.51398 14.8925 9.77573 15.1105C10.0375 15.3285 10.5969 15.216 11.0252 14.8593C11.4536 14.5026 11.5886 14.0366 11.3268 13.8186C11.0651 13.6006 10.5057 13.7131 10.0773 14.0698Z" fill="black"/>
<path d="M7.33417 14.0698C6.90585 14.4266 6.77082 14.8925 7.03257 15.1105C7.29432 15.3285 7.85374 15.216 8.28207 14.8593C8.71039 14.5026 8.84542 14.0366 8.58367 13.8186C8.32192 13.6006 7.7625 13.7131 7.33417 14.0698Z" fill="black"/>
</svg>
