<svg width="34" height="34" viewBox="0 0 34 34" fill="none" xmlns="http://www.w3.org/2000/svg">
<path d="M3.53706 17.5371L5.28706 15.7871L7.03706 14.0371L10.5371 10.5371L17.5371 3.53706C19.1615 1.91261 21.3647 1 23.6621 1C25.9594 1 28.1626 1.91261 29.7871 3.53706C31.4115 5.16151 32.3241 7.36474 32.3241 9.66206C32.3241 11.9594 31.4115 14.1626 29.7871 15.7871C29.7871 15.7871 25.5207 20.0534 22.7871 22.7871C20.0534 25.5207 17.4115 28.1626 15.7871 29.7871C14.1626 31.4115 11.9594 32.3241 9.66206 32.3241C7.36474 32.3241 5.16151 31.4115 3.53706 29.7871C1.91261 28.1626 1 25.9594 1 23.6621C1 21.3647 1.91261 19.1615 3.53706 17.5371Z" stroke="#1E6F78" stroke-width="2" stroke-linecap="round" stroke-linejoin="round"/>
<path d="M10.5371 10.5371L22.7871 22.7871" stroke="#1E6F78" stroke-width="2" stroke-linecap="round" stroke-linejoin="round"/>
</svg>
