<svg width="21" height="17" viewBox="0 0 21 17" fill="none" xmlns="http://www.w3.org/2000/svg">
<g clip-path="url(#clip0_2045_15763)">
<path d="M9.35547 6.54125L12.0752 9.35968L12.0882 9.21204C12.0882 7.73124 10.9269 6.52783 9.49793 6.52783L9.35547 6.54125Z" fill="#1E6F78"/>
<path d="M9.49729 4.73829C11.8803 4.73829 13.8144 6.74252 13.8144 9.212C13.8144 9.7891 13.7021 10.3394 13.5079 10.8449L16.0333 13.462C17.3371 12.3346 18.3646 10.8762 18.9992 9.212C17.5012 5.28411 13.8187 2.50146 9.49733 2.50146C8.28854 2.50146 7.13159 2.72514 6.05664 3.12777L7.92161 5.05591C8.40939 4.85908 8.94039 4.73829 9.49729 4.73829Z" fill="#1E6F78"/>
<path d="M0.863399 2.30095L2.83198 4.34095L3.22485 4.74807C1.80021 5.90228 0.673462 7.43677 0 9.2128C1.49372 13.1407 5.18048 15.9233 9.49755 15.9233C10.8359 15.9233 12.1137 15.6549 13.2836 15.1673L13.6506 15.5475L16.1675 18.1602L17.2683 17.0239L1.96425 1.16016L0.863399 2.30095ZM5.6381 7.24439L6.97207 8.62676C6.93322 8.81914 6.90731 9.01148 6.90731 9.2128C6.90731 10.6936 8.06859 11.897 9.49755 11.897C9.69182 11.897 9.87747 11.8702 10.0588 11.8299L11.3928 13.2123C10.8186 13.5075 10.1797 13.6865 9.49755 13.6865C7.11453 13.6865 5.18047 11.6823 5.18047 9.2128C5.18047 8.50597 5.35317 7.84385 5.6381 7.24439Z" fill="#1E6F78"/>
</g>
<defs>
<clipPath id="clip0_2045_15763">
<rect width="21" height="17" fill="white"/>
</clipPath>
</defs>
</svg>
