<svg width="52" height="45" viewBox="0 0 52 45" fill="none" xmlns="http://www.w3.org/2000/svg">
<path d="M49.7115 14.6008L47.1941 12.3209L42.9731 16.1438L45.4905 18.4237L43.202 20.4964L40.6846 18.2165L18.5878 38.2523H12.0528L6.91638 42.9273L0 45L9.7643 36.1566V30.261L31.8866 10.2482L29.3692 7.96827L31.6577 5.8956L34.1751 8.17554L38.3961 4.35261L35.8787 2.07267L38.1672 0L52 12.5281L49.7115 14.6008ZM17.2147 35.3045L38.3707 16.1438L34.1751 12.3439L28.3521 17.6177L30.4372 19.5292L28.1487 21.6018L26.0381 19.7134L23.4445 22.0394L25.555 23.9509L23.2665 26.0235L21.156 24.1121L18.5878 26.4611L20.6729 28.3726L18.3844 30.4452L16.2738 28.5568L13.0191 31.5046V35.3045H17.2147ZM40.6846 14.0481L44.8802 10.2482L40.6846 6.44831L36.489 10.2482L40.6846 14.0481Z" fill="black"/>
</svg>
