<svg width="38" height="42" viewBox="0 0 38 42" fill="none" xmlns="http://www.w3.org/2000/svg">
<rect width="37.2336" height="41.2975" rx="12" fill="#1E6F78"/>
<path fill-rule="evenodd" clip-rule="evenodd" d="M18.6168 12.0607C23.2707 9.41832 26.1167 10.9359 27.3096 13.5377C27.9471 14.9282 28.4605 17.3951 28.1558 19.9692H23.8432L23.2801 18.668C23.0472 18.0533 22.2675 17.9889 21.9641 18.5821L21.5046 19.4799L20.5634 15.3279C20.4121 14.4919 19.3337 14.4422 19.1302 15.2744L18.1222 19.3874L17.7884 18.0174C17.64 17.3992 16.9209 17.1971 16.5292 17.688L14.7042 19.9692H9.07751C8.77286 17.3951 9.28622 14.9282 9.92397 13.5377C11.1166 10.9359 13.9626 9.41832 18.6168 12.0607ZM27.847 21.6036C26.8497 25.3779 21.7091 29.783 18.6168 30.3905C15.5245 29.7827 10.3839 25.3782 9.38662 21.6038H15.0319C15.2742 21.6038 15.4891 21.4738 15.6234 21.2739L16.7226 19.9L17.4078 22.7273C17.6022 23.5336 18.6339 23.5254 18.8292 22.73L19.8139 18.7146L20.5244 21.8493C20.6908 22.5882 21.5946 22.6853 21.8965 22.0164L22.5491 20.7407L22.721 21.1376C22.8469 21.4297 23.1092 21.6003 23.383 21.6006L27.847 21.6036Z" fill="white"/>
</svg>
