<svg width="38" height="42" viewBox="0 0 38 42" fill="none" xmlns="http://www.w3.org/2000/svg">
<rect width="37.2336" height="41.2975" rx="12" fill="#1E6F78"/>
<path d="M23.0691 9.49542H14.5715C14.0967 9.49542 13.6968 9.93895 13.6968 10.4656V21.2767C13.6968 21.8034 14.0967 22.2469 14.5715 22.2469H23.0691C23.5439 22.2469 23.9438 21.8034 23.9438 21.2767V10.4656C23.9438 9.93895 23.5439 9.49542 23.0691 9.49542ZM16.6959 17.673C16.6959 17.9027 16.5097 18.0888 16.2801 18.0888H15.1123C14.8827 18.0888 14.6965 17.9027 14.6965 17.673C14.6965 17.4434 14.8827 17.2572 15.1123 17.2572H16.2801C16.5097 17.2572 16.6959 17.4434 16.6959 17.673ZM19.945 17.673C19.945 17.9027 19.7588 18.0888 19.5292 18.0888H18.1114C17.8818 18.0888 17.6956 17.9027 17.6956 17.673C17.6956 17.4434 17.8818 17.2572 18.1114 17.2572H19.5292C19.7588 17.2572 19.945 17.4434 19.945 17.673ZM22.9441 17.673C22.9441 17.9027 22.758 18.0888 22.5283 18.0888H21.3605C21.1309 18.0888 20.9447 17.9027 20.9447 17.673C20.9447 17.4434 21.1309 17.2572 21.3605 17.2572H22.5283C22.758 17.2572 22.9441 17.4434 22.9441 17.673Z" fill="white"/>
<path d="M24.0688 7.83221H13.5719C12.8221 7.83221 12.1973 8.52523 12.1973 9.35685V22.8845C12.1973 23.6884 12.4722 24.4369 12.947 25.019L14.2217 26.5714L14.2467 26.5991C15.1214 27.6525 15.2214 27.7634 15.4463 27.7634C16.5506 27.7634 17.4458 28.6586 17.4458 29.7628V31.2249C17.4458 31.3561 17.4626 31.4867 17.496 31.6136L17.5319 31.75C17.6873 32.3411 18.2217 32.7531 18.8329 32.7531C19.444 32.7531 19.9784 32.3411 20.1338 31.75L20.1697 31.6136C20.2031 31.4867 20.22 31.3561 20.22 31.2249V29.7905C20.22 28.6863 21.1151 27.7911 22.2194 27.7911C22.4443 27.7911 22.5443 27.6802 23.419 26.6268L24.7187 25.019C25.1935 24.4369 25.4684 23.6607 25.4684 22.8845V9.35685C25.4435 8.52523 24.8186 7.83221 24.0688 7.83221ZM16.362 26.9595C16.1324 26.9595 15.9462 26.7733 15.9462 26.5437C15.9462 26.314 16.1324 26.1279 16.362 26.1279H17.0299C17.2596 26.1279 17.4458 26.314 17.4458 26.5437C17.4458 26.7733 17.2596 26.9595 17.0299 26.9595H16.362ZM19.3202 30.5632C19.2512 30.5632 19.1953 30.5072 19.1953 30.4382V29.2748C19.1953 29.0678 19.0274 28.8999 18.8204 28.8999C18.6133 28.8999 18.4455 29.0678 18.4455 29.2748V30.4382C18.4455 30.5072 18.3895 30.5632 18.3205 30.5632C18.2515 30.5632 18.1955 30.5072 18.1955 30.4382V26.7527C18.1955 26.4076 18.4753 26.1279 18.8204 26.1279C19.1654 26.1279 19.4452 26.4076 19.4452 26.7527V30.4382C19.4452 30.5072 19.3892 30.5632 19.3202 30.5632ZM18.5577 31.9492C18.4325 31.9492 18.3228 31.8653 18.2901 31.7444C18.2424 31.5682 18.3751 31.3948 18.5577 31.3948H19.058C19.2406 31.3948 19.3733 31.5682 19.3256 31.7444C19.2929 31.8653 19.1833 31.9492 19.058 31.9492H18.5577ZM20.195 26.5437C20.195 26.314 20.3811 26.1279 20.6108 26.1279H21.2787C21.5084 26.1279 21.6945 26.314 21.6945 26.5437C21.6945 26.7733 21.5084 26.9595 21.2787 26.9595H20.6108C20.3811 26.9595 20.195 26.7733 20.195 26.5437ZM24.6937 22.8845C24.6937 23.4667 24.4937 24.0211 24.1438 24.4646L22.8692 26.017L22.8442 26.0447C22.7135 26.2187 22.4443 26.1153 22.4443 25.8977V25.6843C22.4443 25.4626 22.2694 25.2685 22.0694 25.2685H15.5713C15.3714 25.2685 15.1964 25.4626 15.1964 25.6843V25.8977C15.1964 26.0959 14.9293 26.1919 14.7965 26.0447L13.4969 24.4646C13.147 24.0211 12.947 23.4667 12.947 22.8845V9.35685C12.947 8.96876 13.222 8.66383 13.5719 8.66383H24.0688C24.4187 8.66383 24.6937 8.96876 24.6937 9.35685V22.8845Z" fill="white"/>
<path d="M16.0564 23.2022C15.7051 23.5919 15.5943 24.1009 15.809 24.3391C16.0237 24.5772 16.4826 24.4544 16.834 24.0647C17.1854 23.6749 17.2961 23.1659 17.0814 22.9278C16.8667 22.6896 16.4078 22.8125 16.0564 23.2022Z" fill="white"/>
<path d="M20.5564 23.2019C20.2051 23.5916 20.0943 24.1006 20.309 24.3388C20.5237 24.5769 20.9826 24.4541 21.334 24.0643C21.6854 23.6746 21.7961 23.1656 21.5814 22.9275C21.3667 22.6893 20.9078 22.8122 20.5564 23.2019Z" fill="white"/>
<path d="M18.3069 23.2019C17.9555 23.5916 17.8448 24.1006 18.0595 24.3388C18.2742 24.5769 18.7331 24.4541 19.0845 24.0643C19.4359 23.6746 19.5466 23.1656 19.3319 22.9275C19.1172 22.6893 18.6583 22.8122 18.3069 23.2019Z" fill="white"/>
</svg>
