<svg width="42" height="42" viewBox="0 0 42 42" fill="none" xmlns="http://www.w3.org/2000/svg">
<g clip-path="url(#clip0_2050_16394)">
<path d="M7.87495 21.875L9.62495 20.125L11.3749 18.375L14.8749 14.875L21.8749 7.87501C23.4994 6.25056 25.7026 5.33795 27.9999 5.33795C30.2973 5.33795 32.5005 6.25056 34.1249 7.87501C35.7494 9.49946 36.662 11.7027 36.662 14C36.662 16.2973 35.7494 18.5006 34.1249 20.125C34.1249 20.125 29.8586 24.3913 27.1249 27.125C24.3913 29.8587 21.7494 32.5006 20.1249 34.125C18.5005 35.7495 16.2973 36.6621 13.9999 36.6621C11.7026 36.6621 9.4994 35.7495 7.87495 34.125C6.2505 32.5006 5.33789 30.2973 5.33789 28C5.33789 25.7027 6.2505 23.4995 7.87495 21.875Z" stroke="#1E6F78" stroke-width="2" stroke-linecap="round" stroke-linejoin="round"/>
<path d="M14.875 14.875L27.125 27.125" stroke="#1E6F78" stroke-width="2" stroke-linecap="round" stroke-linejoin="round"/>
</g>
<defs>
<clipPath id="clip0_2050_16394">
<rect width="42" height="42" fill="white"/>
</clipPath>
</defs>
</svg>
