<svg width="38" height="42" viewBox="0 0 38 42" fill="none" xmlns="http://www.w3.org/2000/svg">
<rect width="37.23" height="41.33" rx="12" fill="#1E6F78"/>
<path d="M25.6667 9H12.3333C9.38781 9 7 11.3878 7 14.3333V27.6667C7 30.6122 9.38781 33 12.3333 33H25.6667C28.6122 33 31 30.6122 31 27.6667V14.3333C31 11.3878 28.6122 9 25.6667 9Z" stroke="white" stroke-width="2" stroke-linecap="round" stroke-linejoin="round"/>
<path d="M19 14.334C21.608 14.334 23.9653 15.4033 25.6586 17.1273L21.7173 20.9993C20.978 20.3146 20.0076 19.9342 19 19.934C17.9925 19.9338 17.0221 20.3138 16.2826 20.998L12.3413 17.1273C13.2091 16.2415 14.2452 15.5381 15.3886 15.0584C16.5321 14.5788 17.76 14.3324 19 14.334V14.334Z" stroke="white" stroke-width="2" stroke-linecap="round" stroke-linejoin="round"/>
</svg>
