<svg width="433" height="419" viewBox="0 0 433 419" fill="none" xmlns="http://www.w3.org/2000/svg">
<path d="M81.09 178.395V103.196C81.09 79.8263 93.1218 72.6535 101.683 72.6535H140.555C149.81 72.6535 151.661 62.3185 151.43 57.151V34.7071C149.208 4.34995 172.023 -1.84666e-05 184.054 0H247.221C276.375 0 282.623 14.577 282.623 22.9067V57.151C282.623 69.7381 289.564 72.7307 293.035 72.6535H304.141C345.234 66.9153 351.651 88.0018 351.805 99.0309V154.794C351.805 192.971 344.864 202.535 336.303 203.615C315.247 207.086 301.133 189.269 282.623 124.02C267.814 71.8206 225.934 33.5502 205.804 22.9067V48.8213C204.508 65.4807 196.549 66.4062 192.384 66.4062C174.871 68.2573 166.577 76.1242 164.618 79.8263C153.882 100.558 140.584 108.802 131.994 108.286C120.425 107.592 113.946 109.674 111.17 113.145C111.17 114.256 116.26 127.645 118.805 134.201C122.507 146.927 132.919 151.246 138.704 151.786C171.467 149.194 184.054 158.496 184.054 164.28C180.167 197.044 156.212 204.155 144.72 203.615H111.17C85.0235 203.615 80.2416 187.11 81.09 178.395Z" fill="#1E6F78"/>
<path d="M179.276 117.773C179.276 119.994 172.026 122.709 168.401 123.789C167.846 144.706 191.771 152.403 203.803 153.637C217.5 158.079 213.212 168.908 209.356 173.767C188.624 184.688 170.792 212.408 164.468 224.902C149.289 258.776 173.723 268.479 187.837 269.096H254.938C288.812 252.992 280.004 187.264 271.366 156.413C257.853 97.5502 221.156 76.6642 204.497 73.5791C202.646 73.5791 203.726 84.5311 204.497 90.0072C180.618 92.9688 177.734 109.752 179.276 117.773Z" fill="#1E6F78"/>
<path d="M7.4 383L7.4 312H35.8C44.3333 312 51 314.067 55.8 318.2C60.6667 322.333 63.1 328 63.1 335.2C63.1 339.933 62 344.067 59.8 347.6C57.6667 351.067 54.5333 353.767 50.4 355.7C46.3333 357.567 41.4667 358.5 35.8 358.5H22.6V383H7.4ZM22.6 345.7H34.9C38.9 345.7 42 344.833 44.2 343.1C46.4 341.3 47.5 338.667 47.5 335.2C47.5 331.8 46.4 329.233 44.2 327.5C42.0667 325.7 38.9667 324.8 34.9 324.8H22.6V345.7ZM95.0555 384.2C89.5888 384.2 84.8221 383.067 80.7555 380.8C76.7555 378.467 73.6221 375.2 71.3555 371C69.1555 366.8 68.0555 361.867 68.0555 356.2C68.0555 350.533 69.1555 345.633 71.3555 341.5C73.6221 337.3 76.7555 334.033 80.7555 331.7C84.7555 329.367 89.4888 328.2 94.9555 328.2C100.289 328.2 104.922 329.367 108.855 331.7C112.789 334.033 115.822 337.367 117.955 341.7C120.155 346.033 121.255 351.2 121.255 357.2V360.2H83.5555C83.7555 364.467 84.8888 367.633 86.9555 369.7C89.0888 371.767 91.8888 372.8 95.3555 372.8C97.8888 372.8 99.9888 372.267 101.655 371.2C103.389 370.133 104.622 368.5 105.355 366.3L120.455 367.2C119.055 372.533 116.089 376.7 111.555 379.7C107.022 382.7 101.522 384.2 95.0555 384.2ZM83.5555 351H105.855C105.655 347.067 104.555 344.133 102.555 342.2C100.622 340.267 98.0888 339.3 94.9555 339.3C91.8221 339.3 89.2221 340.333 87.1555 342.4C85.1555 344.4 83.9555 347.267 83.5555 351ZM151.066 383C145.532 383 141.466 381.733 138.866 379.2C136.266 376.6 134.966 372.5 134.966 366.9V316.8H149.966V365.1C149.966 367.7 150.499 369.467 151.566 370.4C152.699 371.333 154.366 371.8 156.566 371.8H164.066V383H151.066ZM126.366 340.6V329.4H164.066V340.6H126.366ZM204.297 384.6C197.83 384.6 192.064 383.133 186.997 380.2C181.997 377.267 178.064 373.033 175.197 367.5C172.397 361.967 170.997 355.333 170.997 347.6C170.997 340.067 172.364 333.533 175.097 328C177.83 322.4 181.73 318.067 186.797 315C191.864 311.933 197.797 310.4 204.597 310.4C213.864 310.4 221.064 312.7 226.197 317.3C231.397 321.833 234.73 328.333 236.197 336.8L220.397 337.4C219.597 332.933 217.864 329.467 215.197 327C212.53 324.467 208.997 323.2 204.597 323.2C200.797 323.2 197.564 324.2 194.897 326.2C192.23 328.2 190.197 331.033 188.797 334.7C187.397 338.367 186.697 342.667 186.697 347.6C186.697 352.6 187.397 356.933 188.797 360.6C190.264 364.2 192.33 366.967 194.997 368.9C197.664 370.833 200.83 371.8 204.497 371.8C209.297 371.8 212.997 370.467 215.597 367.8C218.264 365.067 219.93 361.3 220.597 356.5L236.497 357.1C235.564 362.9 233.73 367.833 230.997 371.9C228.264 375.967 224.664 379.1 220.197 381.3C215.797 383.5 210.497 384.6 204.297 384.6ZM261.855 384.2C256.322 384.2 251.789 382.933 248.255 380.4C244.789 377.8 243.055 374.2 243.055 369.6C243.055 364.867 244.522 361.233 247.455 358.7C250.455 356.1 254.855 354.2 260.655 353L277.955 349.6C277.955 346.133 277.155 343.533 275.555 341.8C274.022 340 271.789 339.1 268.855 339.1C265.989 339.1 263.755 339.767 262.155 341.1C260.555 342.367 259.522 344.267 259.055 346.8L243.955 346.1C244.955 340.233 247.589 335.8 251.855 332.8C256.189 329.733 261.855 328.2 268.855 328.2C276.855 328.2 282.855 330.1 286.855 333.9C290.922 337.7 292.955 343.267 292.955 350.6V368.9C292.955 370.433 293.189 371.467 293.655 372C294.189 372.467 294.955 372.7 295.955 372.7H297.455V383C296.989 383.133 296.222 383.267 295.155 383.4C294.155 383.533 293.155 383.6 292.155 383.6C290.022 383.6 288.022 383.233 286.155 382.5C284.355 381.767 282.889 380.533 281.755 378.8C280.622 377 280.055 374.467 280.055 371.2L281.355 372.2C280.689 374.6 279.489 376.7 277.755 378.5C276.089 380.3 273.889 381.7 271.155 382.7C268.489 383.7 265.389 384.2 261.855 384.2ZM265.455 373.9C267.922 373.9 270.089 373.433 271.955 372.5C273.822 371.5 275.289 370.067 276.355 368.2C277.422 366.333 277.955 364.133 277.955 361.6V359L265.755 361.6C263.355 362.067 261.522 362.867 260.255 364C259.055 365.067 258.455 366.467 258.455 368.2C258.455 370 259.055 371.4 260.255 372.4C261.455 373.4 263.189 373.9 265.455 373.9ZM305.33 383V329.4H319.53L320.03 345L318.93 344.7C319.797 339.3 321.33 335.4 323.53 333C325.73 330.6 328.764 329.4 332.63 329.4H337.53V341.8H332.63C329.83 341.8 327.53 342.167 325.73 342.9C323.93 343.633 322.564 344.8 321.63 346.4C320.764 348 320.33 350.167 320.33 352.9V383H305.33ZM367.907 384.2C362.44 384.2 357.674 383.067 353.607 380.8C349.607 378.467 346.474 375.2 344.207 371C342.007 366.8 340.907 361.867 340.907 356.2C340.907 350.533 342.007 345.633 344.207 341.5C346.474 337.3 349.607 334.033 353.607 331.7C357.607 329.367 362.34 328.2 367.807 328.2C373.14 328.2 377.774 329.367 381.707 331.7C385.64 334.033 388.674 337.367 390.807 341.7C393.007 346.033 394.107 351.2 394.107 357.2V360.2H356.407C356.607 364.467 357.74 367.633 359.807 369.7C361.94 371.767 364.74 372.8 368.207 372.8C370.74 372.8 372.84 372.267 374.507 371.2C376.24 370.133 377.474 368.5 378.207 366.3L393.307 367.2C391.907 372.533 388.94 376.7 384.407 379.7C379.874 382.7 374.374 384.2 367.907 384.2ZM356.407 351H378.707C378.507 347.067 377.407 344.133 375.407 342.2C373.474 340.267 370.94 339.3 367.807 339.3C364.674 339.3 362.074 340.333 360.007 342.4C358.007 344.4 356.807 347.267 356.407 351ZM410.894 346.78V317.14H419.054V346.78H410.894ZM400.154 336.04V327.88H429.794V336.04H400.154Z" fill="#1E6F78"/>
</svg>
