<svg width="151" height="40" viewBox="0 0 151 40" fill="none" xmlns="http://www.w3.org/2000/svg">
<path d="M52.12 25V15.06H55.97C57.1367 15.06 58.0467 15.34 58.7 15.9C59.3533 16.46 59.68 17.2347 59.68 18.224C59.68 18.8867 59.5307 19.4607 59.232 19.946C58.9333 20.422 58.5087 20.786 57.958 21.038C57.4073 21.29 56.7447 21.416 55.97 21.416H53.94V25H52.12ZM53.94 19.834H55.886C56.502 19.834 56.9733 19.6987 57.3 19.428C57.636 19.1573 57.804 18.756 57.804 18.224C57.804 17.7013 57.636 17.3093 57.3 17.048C56.9733 16.7773 56.502 16.642 55.886 16.642H53.94V19.834ZM64.1144 25.168C63.3677 25.168 62.7191 25.0093 62.1684 24.692C61.6177 24.3653 61.1931 23.908 60.8944 23.32C60.5957 22.732 60.4464 22.046 60.4464 21.262C60.4464 20.478 60.5957 19.7967 60.8944 19.218C61.1931 18.63 61.6131 18.1727 62.1544 17.846C62.7051 17.5193 63.3444 17.356 64.0724 17.356C64.7817 17.356 65.4024 17.5147 65.9344 17.832C66.4757 18.1493 66.8911 18.6067 67.1804 19.204C67.4697 19.8013 67.6144 20.52 67.6144 21.36V21.766H62.3084C62.3457 22.4193 62.5231 22.914 62.8404 23.25C63.1671 23.5767 63.5964 23.74 64.1284 23.74C64.5297 23.74 64.8611 23.6513 65.1224 23.474C65.3931 23.2873 65.5797 23.0307 65.6824 22.704L67.5164 22.816C67.3111 23.544 66.9051 24.118 66.2984 24.538C65.7011 24.958 64.9731 25.168 64.1144 25.168ZM62.3084 20.562H65.7664C65.7291 19.9553 65.5564 19.5073 65.2484 19.218C64.9404 18.9193 64.5484 18.77 64.0724 18.77C63.5964 18.77 63.1997 18.924 62.8824 19.232C62.5744 19.54 62.3831 19.9833 62.3084 20.562ZM71.7514 25C71.0047 25 70.4541 24.8273 70.0994 24.482C69.7541 24.1367 69.5814 23.5953 69.5814 22.858V15.774H71.3734V22.69C71.3734 23.0353 71.4481 23.278 71.5974 23.418C71.7467 23.5487 71.9801 23.614 72.2974 23.614H73.3474V25H71.7514ZM68.4054 18.91V17.524H73.3474V18.91H68.4054ZM78.958 25.224C78.0527 25.224 77.2547 25.0187 76.564 24.608C75.8733 24.188 75.332 23.5953 74.94 22.83C74.548 22.0553 74.352 21.1267 74.352 20.044C74.352 18.98 74.5433 18.0607 74.926 17.286C75.3087 16.502 75.8453 15.9 76.536 15.48C77.2267 15.0507 78.0387 14.836 78.972 14.836C80.2413 14.836 81.226 15.1533 81.926 15.788C82.626 16.4133 83.0833 17.2907 83.298 18.42L81.394 18.518C81.2727 17.8647 81.0113 17.3513 80.61 16.978C80.2087 16.6047 79.6627 16.418 78.972 16.418C78.412 16.418 77.9267 16.5673 77.516 16.866C77.1053 17.1647 76.788 17.5847 76.564 18.126C76.34 18.6673 76.228 19.3067 76.228 20.044C76.228 20.7907 76.34 21.4347 76.564 21.976C76.7973 22.508 77.1193 22.9187 77.53 23.208C77.9407 23.4973 78.4167 23.642 78.958 23.642C79.6953 23.642 80.2647 23.4413 80.666 23.04C81.0767 22.6293 81.338 22.0693 81.45 21.36L83.354 21.458C83.2233 22.2327 82.9713 22.9047 82.598 23.474C82.2247 24.034 81.73 24.468 81.114 24.776C80.5073 25.0747 79.7887 25.224 78.958 25.224ZM86.9352 25.168C86.1512 25.168 85.5212 24.9907 85.0452 24.636C84.5692 24.272 84.3312 23.768 84.3312 23.124C84.3312 22.48 84.5318 21.976 84.9332 21.612C85.3345 21.248 85.9458 20.9867 86.7672 20.828L89.2452 20.338C89.2452 19.806 89.1238 19.4093 88.8812 19.148C88.6385 18.8773 88.2792 18.742 87.8032 18.742C87.3738 18.742 87.0332 18.8447 86.7812 19.05C86.5385 19.246 86.3705 19.5307 86.2772 19.904L84.4572 19.82C84.6065 19.0267 84.9705 18.42 85.5492 18C86.1278 17.5707 86.8792 17.356 87.8032 17.356C88.8672 17.356 89.6698 17.6267 90.2112 18.168C90.7618 18.7 91.0372 19.4653 91.0372 20.464V23.18C91.0372 23.376 91.0698 23.5113 91.1352 23.586C91.2098 23.6607 91.3172 23.698 91.4572 23.698H91.6952V25C91.6392 25.0187 91.5458 25.0327 91.4152 25.042C91.2938 25.0513 91.1678 25.056 91.0372 25.056C90.7292 25.056 90.4538 25.0093 90.2112 24.916C89.9685 24.8133 89.7818 24.6407 89.6512 24.398C89.5205 24.146 89.4552 23.8053 89.4552 23.376L89.6092 23.488C89.5345 23.8147 89.3712 24.1087 89.1192 24.37C88.8765 24.622 88.5685 24.818 88.1952 24.958C87.8218 25.098 87.4018 25.168 86.9352 25.168ZM87.2992 23.866C87.7005 23.866 88.0458 23.7867 88.3352 23.628C88.6245 23.4693 88.8485 23.25 89.0072 22.97C89.1658 22.69 89.2452 22.3587 89.2452 21.976V21.556L87.3132 21.948C86.9118 22.032 86.6225 22.158 86.4452 22.326C86.2772 22.4847 86.1932 22.6947 86.1932 22.956C86.1932 23.2453 86.2865 23.4693 86.4732 23.628C86.6692 23.7867 86.9445 23.866 87.2992 23.866ZM92.8589 25V17.524H94.5389L94.6089 19.596L94.4549 19.568C94.5669 18.8493 94.7769 18.3313 95.0849 18.014C95.4022 17.6873 95.8316 17.524 96.3729 17.524H97.0589V19.064H96.3589C95.9762 19.064 95.6589 19.12 95.4069 19.232C95.1549 19.344 94.9636 19.5213 94.8329 19.764C94.7116 19.9973 94.6509 20.3053 94.6509 20.688V25H92.8589ZM101.261 25.168C100.514 25.168 99.8655 25.0093 99.3149 24.692C98.7642 24.3653 98.3395 23.908 98.0409 23.32C97.7422 22.732 97.5929 22.046 97.5929 21.262C97.5929 20.478 97.7422 19.7967 98.0409 19.218C98.3395 18.63 98.7595 18.1727 99.3009 17.846C99.8515 17.5193 100.491 17.356 101.219 17.356C101.928 17.356 102.549 17.5147 103.081 17.832C103.622 18.1493 104.038 18.6067 104.327 19.204C104.616 19.8013 104.761 20.52 104.761 21.36V21.766H99.4549C99.4922 22.4193 99.6695 22.914 99.9869 23.25C100.314 23.5767 100.743 23.74 101.275 23.74C101.676 23.74 102.008 23.6513 102.269 23.474C102.54 23.2873 102.726 23.0307 102.829 22.704L104.663 22.816C104.458 23.544 104.052 24.118 103.445 24.538C102.848 24.958 102.12 25.168 101.261 25.168ZM99.4549 20.562H102.913C102.876 19.9553 102.703 19.5073 102.395 19.218C102.087 18.9193 101.695 18.77 101.219 18.77C100.743 18.77 100.346 18.924 100.029 19.232C99.7209 19.54 99.5295 19.9833 99.4549 20.562ZM108.538 24.356V17.552H110.022V24.356H108.538ZM105.878 21.696V20.198H112.682V21.696H105.878Z" fill="white"/>
<path d="M0.0142775 26.5176V15.3396C0.0142763 11.8659 1.92228 10.7997 3.2799 10.7997H9.44421C10.9119 10.7997 11.2054 9.2634 11.1688 8.49527V5.15907C10.8165 0.646603 14.4344 -2.74498e-06 16.3424 0H26.3594C30.9826 0 31.9733 2.16681 31.9733 3.40499V8.49527C31.9733 10.3663 33.0741 10.8111 33.6245 10.7997H35.3857C41.9023 9.94669 42.9199 13.0811 42.9443 14.7205V23.0095C42.9443 28.6844 41.8436 30.106 40.4859 30.2665C37.1469 30.7825 34.9087 28.1341 31.9733 18.4351C29.625 10.6758 22.9837 4.9871 19.7915 3.40499V7.25709C19.586 9.73345 18.3238 9.87102 17.6633 9.87102C14.8861 10.1462 13.5707 11.3156 13.2602 11.8659C11.5577 14.9475 9.44881 16.1729 8.08659 16.0963C6.25198 15.9931 5.22459 16.3027 4.78428 16.8186C4.78428 16.9837 5.59152 18.9739 5.99513 19.9484C6.58221 21.8401 8.23336 22.4821 9.15067 22.5623C14.3463 22.1771 16.3424 23.5598 16.3424 24.4196C15.7259 29.2898 11.9271 30.3468 10.1047 30.2665H4.78428C0.63805 30.2665 -0.120261 27.8131 0.0142775 26.5176Z" fill="#EDF6F7"/>
<path d="M15.5848 17.5067C15.5848 17.8369 14.4352 18.2405 13.8603 18.401C13.7722 21.5102 17.5662 22.6543 19.4742 22.8378C21.6464 23.4981 20.9664 25.1078 20.3549 25.83C17.0672 27.4534 14.2395 31.5738 13.2365 33.4311C10.8295 38.4663 14.7042 39.9086 16.9425 40.0003H27.5832C32.955 37.6065 31.5583 27.8363 30.1884 23.2505C28.0456 14.5007 22.2262 11.3961 19.5843 10.9375C19.2908 10.9375 19.462 12.5655 19.5843 13.3795C15.7977 13.8197 15.3402 16.3144 15.5848 17.5067Z" fill="#EDF6F7"/>
</svg>
