<svg width="60" height="69" viewBox="0 0 60 69" fill="none" xmlns="http://www.w3.org/2000/svg">
<path d="M34.0752 0.5C35.019 0.5 35.9296 0.895152 36.6055 1.60742C37.2822 2.32063 37.667 3.29313 37.667 4.3125V32.1367H41.417V7.17578C41.417 6.15651 41.8009 5.18386 42.4775 4.4707C43.1533 3.75848 44.0641 3.36338 45.0078 3.36328C45.9516 3.36328 46.8632 3.75839 47.5391 4.4707C48.2156 5.18385 48.5996 6.15657 48.5996 7.17578V32.1367H52.3164V15.8008C52.3165 14.7815 52.7013 13.8089 53.3779 13.0957C54.0537 12.3835 54.9645 11.9883 55.9082 11.9883C56.8519 11.9883 57.7627 12.3835 58.4385 13.0957C59.1151 13.8089 59.4999 14.7815 59.5 15.8008V57.5117C59.4999 60.4342 58.3978 63.2321 56.4443 65.291C54.4917 67.349 51.8491 68.5 49.0996 68.5H29.165C27.7894 68.5016 26.4263 68.2118 25.1572 67.6475C23.8883 67.0831 22.7381 66.2549 21.7754 65.2109L21.7725 65.208L0.699219 42.6924L3.87598 39.5928C4.38207 39.1224 5.02817 38.866 5.69336 38.8643C6.17533 38.8701 6.64938 39.009 7.06738 39.2705V39.2715L7.0791 39.2783L18.8301 46.1777L19.583 46.6201V11.4883C19.5831 10.469 19.9679 9.49636 20.6445 8.7832C21.3203 8.07097 22.2311 7.67587 23.1748 7.67578C24.1186 7.67578 25.0302 8.07089 25.7061 8.7832C26.3826 9.49634 26.7665 10.4691 26.7666 11.4883V32.1367H30.4834V4.3125C30.4834 3.29314 30.8682 2.32063 31.5449 1.60742C32.2207 0.895129 33.1314 0.500026 34.0752 0.5ZM48.3594 51.5547C47.6667 51.2523 46.9023 51.1726 46.165 51.3271C45.4283 51.4817 44.7552 51.862 44.2295 52.416C43.7039 52.97 43.3487 53.6733 43.2051 54.4346C43.0615 55.1956 43.1347 55.9847 43.417 56.7031C43.6994 57.4217 44.1792 58.0404 44.7998 58.4775C45.4207 58.9148 46.1541 59.1503 46.9062 59.1504C47.9157 59.1504 48.8786 58.7268 49.584 57.9834C50.2884 57.2409 50.6796 56.2394 50.6797 55.2002C50.6797 54.4247 50.462 53.6643 50.0508 53.0156C49.6394 52.3667 49.0517 51.857 48.3594 51.5547ZM35.2666 48.1045C34.5739 47.8021 33.8095 47.7224 33.0723 47.877C32.3352 48.0315 31.6616 48.4126 31.1357 48.9668C30.6104 49.5207 30.255 50.2233 30.1113 50.9844C29.9677 51.7455 30.0419 52.5345 30.3242 53.2529C30.6067 53.9716 31.0863 54.5902 31.707 55.0273C32.3281 55.4647 33.0612 55.7002 33.8135 55.7002C34.8229 55.7002 35.7859 55.2766 36.4912 54.5332C37.1954 53.7907 37.5869 52.7891 37.5869 51.75C37.5869 50.9744 37.3683 50.2142 36.957 49.5654C36.5457 48.9167 35.9587 48.4067 35.2666 48.1045ZM51.6328 41.2041C50.9401 40.9017 50.1757 40.822 49.4385 40.9766C48.7016 41.1311 48.0287 41.5123 47.5029 42.0664C46.9774 42.6203 46.6222 43.3228 46.4785 44.084C46.3349 44.8452 46.4081 45.635 46.6904 46.3535C46.9728 47.0719 47.4529 47.6899 48.0732 48.127C48.6942 48.5642 49.4275 48.7997 50.1797 48.7998C51.1892 48.7998 52.1521 48.3772 52.8574 47.6338C53.5619 46.8912 53.9531 45.889 53.9531 44.8496C53.9531 44.0743 53.7353 43.3146 53.3242 42.666C52.9128 42.017 52.3252 41.5064 51.6328 41.2041ZM28.7197 37.7539C28.027 37.4515 27.2627 37.3728 26.5254 37.5273C25.7886 37.6819 25.1156 38.0622 24.5898 38.6162C24.0644 39.17 23.7092 39.8727 23.5654 40.6338C23.4218 41.395 23.495 42.1848 23.7773 42.9033C24.0598 43.6219 24.5395 44.2407 25.1602 44.6777C25.7811 45.115 26.5144 45.3496 27.2666 45.3496C28.2761 45.3496 29.239 44.927 29.9443 44.1836C30.6487 43.4412 31.0399 42.4395 31.04 41.4004C31.04 40.625 30.8223 39.8645 30.4111 39.2158C29.9997 38.5668 29.4121 38.0562 28.7197 37.7539ZM41.8125 37.7539C41.1199 37.4517 40.3562 37.3729 39.6191 37.5273C38.8821 37.6819 38.2085 38.062 37.6826 38.6162C37.1571 39.1701 36.8019 39.8727 36.6582 40.6338C36.5146 41.395 36.5877 42.1848 36.8701 42.9033C37.1526 43.622 37.6332 44.2406 38.2539 44.6777C38.8749 45.1149 39.6082 45.3496 40.3604 45.3496C41.3697 45.3495 42.3318 44.9269 43.0371 44.1836C43.7415 43.4411 44.1337 42.4396 44.1338 41.4004C44.1338 40.6249 43.9151 39.8645 43.5039 39.2158C43.0925 38.5668 42.5048 38.0562 41.8125 37.7539Z" fill="#1E6F78" stroke="#1E6F78"/>
</svg>
