<svg width="24" height="24" viewBox="0 0 24 24" fill="none" xmlns="http://www.w3.org/2000/svg">
<path fill-rule="evenodd" clip-rule="evenodd" d="M12.0002 1.68083C17.7998 -1.53663 21.3465 0.311218 22.833 3.47925C23.6275 5.17248 24.2672 8.1762 23.8876 11.3105H18.5132L17.8115 9.72615C17.5212 8.97772 16.5496 8.89924 16.1715 9.62162L15.5989 10.7147L14.426 5.65907C14.2374 4.64113 12.8935 4.58068 12.6399 5.59395L11.3838 10.6022L10.9678 8.93397C10.7829 8.18121 9.88676 7.93507 9.39863 8.53288L7.12438 11.3105H0.112418C-0.26724 8.1762 0.372509 5.17248 1.16726 3.47925C2.65354 0.311218 6.2002 -1.53663 12.0002 1.68083V1.68083ZM23.5027 13.3006C22.2599 17.8964 15.8537 23.2603 12.0002 24C8.14656 23.2599 1.74045 17.8967 0.497623 13.301H7.5327C7.8347 13.301 8.10249 13.1427 8.26983 12.8992L9.63962 11.2263L10.4935 14.6689C10.7358 15.6508 12.0214 15.6407 12.2649 14.6722L13.492 9.78292L14.3773 13.5999C14.5847 14.4996 15.7111 14.6178 16.0873 13.8032L16.9006 12.25L17.1148 12.7332C17.2716 13.0889 17.5986 13.2966 17.9397 13.2969L23.5027 13.3006Z" fill="black"/>
</svg>
