<svg width="40" height="57" viewBox="0 0 40 57" fill="none" xmlns="http://www.w3.org/2000/svg">
<path d="M20 27.075C18.1056 27.075 16.2888 26.3243 14.9492 24.9881C13.6097 23.6519 12.8571 21.8397 12.8571 19.95C12.8571 18.0603 13.6097 16.2481 14.9492 14.9119C16.2888 13.5757 18.1056 12.825 20 12.825C21.8944 12.825 23.7112 13.5757 25.0508 14.9119C26.3903 16.2481 27.1429 18.0603 27.1429 19.95C27.1429 20.8857 26.9581 21.8122 26.5991 22.6766C26.2402 23.5411 25.714 24.3265 25.0508 24.9881C24.3875 25.6498 23.6001 26.1746 22.7335 26.5326C21.8668 26.8907 20.938 27.075 20 27.075ZM20 0C14.6957 0 9.60859 2.10187 5.85786 5.84322C2.10714 9.58457 0 14.6589 0 19.95C0 34.9125 20 57 20 57C20 57 40 34.9125 40 19.95C40 14.6589 37.8929 9.58457 34.1421 5.84322C30.3914 2.10187 25.3043 0 20 0Z" fill="#1E6F78"/>
</svg>
