<svg width="60" height="56" viewBox="0 0 60 56" fill="none" xmlns="http://www.w3.org/2000/svg">
<path d="M48.9404 29.2773C50.2668 29.2774 51.4041 29.7829 52.375 30.8271V30.8281L56.0381 34.7949L56.0391 34.7959C57.1032 35.9434 57.9355 37.2531 58.5361 38.7285C59.0607 40.0172 59.3722 41.3732 59.4707 42.7979L59.5 43.4131C59.4973 46.8216 58.4519 49.6779 56.377 52.0127C54.2984 54.3512 51.8275 55.4999 48.9404 55.5C46.0049 55.5 43.5231 54.3498 41.4688 52.0146C39.4109 49.6753 38.3546 46.8387 38.3105 43.4775H38.3115C38.3116 41.8313 38.6208 40.2632 39.2402 38.7695C39.8635 37.2667 40.7072 35.9425 41.7715 34.7949L45.501 30.8311L45.502 30.832L45.5049 30.8291C46.4761 29.7839 47.6134 29.2773 48.9404 29.2773ZM29.585 0.5C35.5179 0.497961 40.9862 2.19156 46 5.58789C51.0163 8.98597 54.9561 13.5682 57.8193 19.3467C58.0767 19.9282 58.2724 20.5616 58.4033 21.249C58.5358 21.9446 58.6015 22.6391 58.6016 23.333C58.6016 24.0757 58.5239 24.7911 58.3701 25.4795C58.2702 25.9267 58.135 26.3625 57.9717 26.7891L55.04 23.6895C54.2185 22.768 53.3021 22.0766 52.2881 21.6309C51.279 21.1873 50.207 20.9668 49.0781 20.9668C47.9536 20.9668 46.8667 21.174 45.8203 21.5869C44.7597 22.0055 43.8119 22.657 42.9785 23.5332L42.9756 23.5371L42.5127 24.0322C42.5147 23.9836 42.519 23.9349 42.5205 23.8857L42.5273 23.3311C42.5269 19.3298 41.2786 15.9047 38.7734 13.0859C36.266 10.2647 33.1948 8.83527 29.5859 8.83301C25.9763 8.83084 22.9052 10.261 20.3994 13.0869C17.8962 15.91 16.6464 19.3351 16.6426 23.333L16.6572 24.0771C16.8037 27.7617 18.0488 30.9391 20.3994 33.584C22.9086 36.4072 25.9793 37.834 29.585 37.832C30.3011 37.832 30.9962 37.78 31.6689 37.6719C32.0273 37.6143 32.3846 37.532 32.7412 37.4297C32.4693 38.3337 32.2549 39.2453 32.0977 40.1641C31.8833 41.4172 31.8015 42.71 31.8506 44.041L31.8516 44.0537C31.8911 44.6757 31.7437 45.1764 31.4336 45.5879C31.1369 45.9815 30.7657 46.167 30.2764 46.167C27.4155 46.167 24.6718 45.8094 22.0439 45.0957C19.4159 44.3819 16.8996 43.3102 14.4951 41.8809H14.4941C11.773 40.2476 9.29922 38.2171 7.07324 35.7881C4.84996 33.362 2.94043 30.5374 1.34668 27.3115C1.04286 26.6754 0.827572 26.0307 0.698242 25.377C0.566449 24.7106 0.5 24.0291 0.5 23.333C0.500021 22.637 0.566525 21.9569 0.698242 21.293C0.827501 20.6416 1.04278 19.9959 1.34668 19.3555C4.21404 13.5686 8.15687 8.98347 13.1738 5.58789C18.1857 2.19584 23.6521 0.502127 29.585 0.5ZM29.5859 15.4336C31.5079 15.4338 33.1377 16.1829 34.501 17.7168C35.781 19.157 36.464 20.8837 36.543 22.9209L36.5508 23.333C36.549 25.5511 35.8623 27.4144 34.5 28.9531C33.1407 30.4885 31.5116 31.2372 29.5859 31.2334C27.6588 31.2295 26.0294 30.4805 24.6719 28.9531C23.3122 27.4233 22.6254 25.5594 22.6201 23.332C22.6149 21.1066 23.3016 19.2459 24.6709 17.7188C26.0403 16.1915 27.6704 15.4416 29.5859 15.4336Z" fill="#1E6F78" stroke="#1E6F78"/>
</svg>
