<svg width="25" height="25" viewBox="0 0 25 25" fill="none" xmlns="http://www.w3.org/2000/svg">
<path d="M11.2876 3.42481H3.28613C2.67981 3.42481 2.09833 3.66567 1.66959 4.0944C1.24086 4.52313 1 5.10462 1 5.71094V21.7139C1 22.3202 1.24086 22.9017 1.66959 23.3304C2.09833 23.7591 2.67981 24 3.28613 24H19.2891C19.8954 24 20.4769 23.7591 20.9056 23.3304C21.3343 22.9017 21.5752 22.3202 21.5752 21.7139V13.7124M19.8606 1.71021C20.3153 1.25547 20.9321 1 21.5752 1C22.2183 1 22.8351 1.25547 23.2898 1.71021C23.7445 2.16495 24 2.78171 24 3.42481C24 4.06791 23.7445 4.68467 23.2898 5.13941L12.4307 15.9985L7.8584 17.1416L9.00146 12.5693L19.8606 1.71021Z" stroke="#1E1E1E" stroke-width="2" stroke-linecap="round" stroke-linejoin="round"/>
</svg>
